<?xml version="1.0" encoding="utf-8"?>
<!-- Generator: Adobe Illustrator 16.0.0, SVG Export Plug-In . SVG Version: 6.00 Build 0)  -->
<!DOCTYPE svg PUBLIC "-//W3C//DTD SVG 1.0//EN" "http://www.w3.org/TR/2001/REC-SVG-20010904/DTD/svg10.dtd" [
	<!ENTITY st0 "fill-rule:evenodd;clip-rule:evenodd;fill:#DD1111;">
	<!ENTITY st1 "fill-rule:evenodd;clip-rule:evenodd;fill:#112277;">
	<!ENTITY st2 "fill-rule:evenodd;clip-rule:evenodd;fill:#55BBEE;">
	<!ENTITY st3 "fill-rule:evenodd;clip-rule:evenodd;">
	<!ENTITY st4 "fill:#FFFFFF;">
	<!ENTITY st5 "fill-rule:evenodd;clip-rule:evenodd;fill:#FFFFFF;">
]>
<svg version="1.0" xmlns="http://www.w3.org/2000/svg" xmlns:xlink="http://www.w3.org/1999/xlink" x="0px" y="0px" width="1600px"
	 height="750px" viewBox="0 0 1600 750" style="enable-background:new 0 0 1600 750;" xml:space="preserve">
<g id="Layer_1">
	<g>
		<path d="M585.297,239.91h-2.348c-4.111-20.947-16.836-32.693-32.498-32.693c-11.158,0-18.99,6.461-18.99,14.486
			c0,8.027,6.266,12.139,18.402,16.641c14.096,5.287,23.885,8.418,28.975,11.746c12.724,8.418,18.792,18.795,18.792,33.086
			c0,25.449-21.337,45.613-53.445,45.613c-16.836,0-28.582-4.697-35.238-4.697c-3.133,0-5.873,0.979-8.223,3.133l-3.523-52.467
			l2.545-0.195c4.307,26.232,20.557,41.697,41.111,41.697c15.074,0,25.451-9.396,25.451-21.338c0-9.984-5.482-14.684-17.619-19.381
			c-16.641-6.461-28.387-10.18-34.064-14.488c-9.396-7.242-13.9-16.443-13.9-28.189c0-22.709,17.816-38.371,47.77-38.371
			c11.746,0,21.338,3.719,28.385,3.719c3.721,0,5.873-0.783,7.439-3.131L585.297,239.91z"/>
		<path d="M656.555,227.578c27.996,0,47.77,19.967,47.77,49.529c0,29.951-21.34,51.096-51.293,51.096
			c-28.387,0-47.573-19.381-47.573-49.727C605.458,248.328,626.603,227.578,656.555,227.578z M637.957,269.275
			c0,29.953,7.833,47.377,18.991,47.377c9.592,0,15.27-10.18,15.27-29.758c0-30.344-8.025-47.57-19.186-47.57
			C643.439,239.324,637.957,249.309,637.957,269.275z"/>
		<path d="M788.504,263.402l-2.152,0.588c-4.111-16.641-10.18-24.275-20.557-24.275c-14.682,0-23.688,12.529-23.688,35.629
			c0,25.256,10.375,39.352,26.428,39.352c9.984,0,17.619-6.266,23.885-18.99l1.957,0.783l-9.787,32.301
			c-1.762-1.369-3.525-1.957-5.287-1.957c-2.35,0-7.83,1.566-16.641,1.566c-33.279,0-53.445-20.164-53.445-51.488
			c0-29.561,19.773-49.137,50.9-49.137c7.244,0,11.943,1.174,13.9,1.174c0.391,0,0.783,0,1.174,0c2.545,0,4.895-0.195,7.049-2.74
			L788.504,263.402z"/>
		<path d="M837.641,304.906c0,1.174,0,2.35,0,3.328c0,8.418,0.391,12.137,9.004,13.703v4.504h-48.354v-4.504
			c8.613-1.566,9.004-5.678,9.004-14.682c0-0.783,0-1.566,0-2.35v-52.27c0-11.551-1.174-16.445-10.963-17.621v-4.307l41.309-3.131
			V304.906z M839.598,200.17c0,10.18-7.047,17.619-16.641,17.619c-9.592,0-16.445-7.244-16.445-17.619
			c0-10.18,6.854-17.619,16.445-17.619C832.551,182.551,839.598,189.99,839.598,200.17z"/>
		<path d="M885.016,282.393c1.566,20.359,12.332,32.693,25.842,32.693c11.549,0,22.514-9.592,28.387-27.016l2.348,0.391
			l-9.787,39.742c-2.35-1.566-4.504-2.35-6.461-2.35c-4.699,0-12.92,2.545-24.08,2.545c-30.148,0-49.529-20.557-49.529-50.9
			c0-12.92,3.916-24.08,11.746-33.281c9.201-10.57,22.318-16.639,35.826-16.639c24.08,0,39.938,14.877,42.09,39.936L885.016,282.393
			z M911.053,261.641c0-14.291-4.699-21.533-12.725-21.533c-9.006,0-14.291,8.418-14.291,24.666c0,1.566,0,3.133,0.195,4.895
			l26.82-7.049C911.053,262.229,911.053,262.033,911.053,261.641z"/>
		<path d="M1038.107,304.906c0,1.174,0,2.35,0,3.328c0,8.418,0.391,12.137,9.006,13.703v4.504h-44.049
			c-13.313,0-24.08-0.588-32.891-4.504c-14.094-6.264-22.121-20.359-22.121-39.938c0-32.105,18.99-52.465,51.488-52.465
			c1.762,0,4.502,0,8.221,0.195V218.18c0-11.551-0.979-16.836-9.396-17.619v-4.307l39.742-3.133V304.906z M980.746,281.217
			c0,21.928,7.439,34.064,18.402,34.064c6.656,0,8.613-3.328,8.613-11.354v-63.82C990.926,240.303,980.746,254.984,980.746,281.217z
			"/>
		<path d="M1132.662,303.34c0,11.355,0.979,17.031,8.613,18.598v4.504h-32.301c-2.74-2.938-4.307-7.244-5.287-13.117
			c-6.654,9.789-15.855,14.879-26.623,14.879c-16.25,0-26.43-10.377-26.43-26.037c0-19.969,17.619-33.869,51.684-39.742
			c0-0.588,0-1.174,0-1.762c0-0.979,0-2.154,0-3.133c0-11.549-3.916-16.443-14.096-16.443c-13.703,0-24.471,10.963-27.604,23.295
			l-2.938-0.195l3.133-33.672c2.154,2.154,3.916,3.328,6.461,3.328c4.502,0,15.662-6.264,33.672-6.264
			c23.492,0,31.715,9.004,31.715,30.93V303.34z M1078.826,298.25c0,7.635,4.111,12.334,9.787,12.334
			c9.789,0,13.705-11.551,13.705-35.436c0-0.586,0-1.174,0-1.762C1088.027,275.541,1078.826,286.504,1078.826,298.25z"/>
		<path d="M1234.461,304.906c0,1.174,0,2.35,0,3.328c0,8.418,0.393,12.137,9.006,13.703v4.504h-44.049
			c-13.313,0-24.08-0.588-32.889-4.504c-14.096-6.264-22.123-20.359-22.123-39.938c0-32.105,18.99-52.465,51.488-52.465
			c1.762,0,4.502,0,8.223,0.195V218.18c0-11.551-0.979-16.836-9.396-17.619v-4.307l39.74-3.133V304.906z M1177.102,281.217
			c0,21.928,7.438,34.064,18.402,34.064c6.656,0,8.613-3.328,8.613-11.354v-63.82
			C1187.281,240.303,1177.102,254.984,1177.102,281.217z"/>
		<path d="M1281.445,282.393c1.566,20.359,12.334,32.693,25.842,32.693c11.551,0,22.514-9.592,28.387-27.016l2.35,0.391
			l-9.789,39.742c-2.35-1.566-4.502-2.35-6.459-2.35c-4.699,0-12.922,2.545-24.08,2.545c-30.148,0-49.531-20.557-49.531-50.9
			c0-12.92,3.916-24.08,11.746-33.281c9.201-10.57,22.318-16.639,35.826-16.639c24.08,0,39.938,14.877,42.092,39.936
			L1281.445,282.393z M1307.482,261.641c0-14.291-4.697-21.533-12.725-21.533c-9.006,0-14.291,8.418-14.291,24.666
			c0,1.566,0,3.133,0.195,4.895l26.82-7.049C1307.482,262.229,1307.482,262.033,1307.482,261.641z"/>
		<path d="M608.593,474.115c0,24.668-15.66,35.043-48.158,35.043h-63.43v-5.48c6.068-0.393,9.201-4.699,9.201-12.334v-94.166
			c0-7.635-3.133-11.746-9.201-12.137v-5.482h72.238c20.557,0,30.541,4.502,30.541,17.424c0,10.963-8.615,20.557-25.451,30.541
			C596.847,438.682,608.593,455.127,608.593,474.115z M568.07,403.051c0-7.439-4.895-11.354-14.096-11.354
			c-10.375,0-13.313,2.936-13.313,12.725v25.842C558.477,423.998,568.07,413.035,568.07,403.051z M540.662,479.988
			c0,10.963,1.566,15.857,9.789,15.857c13.9,0,22.514-11.746,22.514-32.498c0-11.354-4.504-22.121-12.334-29.365
			c-6.852,3.916-13.508,6.852-19.969,9.006V479.988z"/>
		<path d="M677.701,410.295c3.523,0,6.459,0.588,9.592,2.152l-4.111,30.346h-1.371c-2.348-6.656-6.656-9.789-13.898-9.789
			c-10.768,0-14.096,8.223-14.096,24.863v29.756c0,1.176,0,2.35,0,3.328c0,8.42,0.391,12.139,9.006,13.705v4.502h-48.356v-4.502
			c8.613-1.566,9.004-5.678,9.004-14.684c0-0.783,0-1.566,0-2.35v-51.682c0-11.551-2.545-16.641-10.18-16.641
			c-0.195,0-0.195,0-0.391,0v-4.504l36.805-2.545c2.152,6.068,3.133,12.529,3.133,19.969
			C657.145,418.518,668.107,410.295,677.701,410.295z"/>
		<path d="M770.492,486.059c0,11.354,0.979,17.031,8.613,18.598v4.502h-32.301c-2.74-2.936-4.307-7.242-5.287-13.115
			c-6.654,9.787-15.855,14.877-26.623,14.877c-16.25,0-26.43-10.375-26.43-26.037c0-19.969,17.619-33.867,51.684-39.74
			c0-0.588,0-1.176,0-1.764c0-0.979,0-2.152,0-3.131c0-11.551-3.916-16.445-14.096-16.445c-13.703,0-24.471,10.963-27.604,23.297
			l-2.938-0.195l3.133-33.674c2.154,2.154,3.916,3.328,6.461,3.328c4.502,0,15.662-6.264,33.672-6.264
			c23.492,0,31.715,9.006,31.715,30.932V486.059z M716.656,480.967c0,7.637,4.111,12.334,9.787,12.334
			c9.789,0,13.705-11.551,13.705-35.434c0-0.588,0-1.176,0-1.762C725.857,458.258,716.656,469.221,716.656,480.967z"/>
		<path d="M857.219,441.422l-2.742,0.195c-2.348-12.725-11.746-20.555-25.059-20.555c-7.83,0-12.332,3.719-12.332,9.201
			c0,6.068,4.307,8.223,12.137,10.963c8.811,3.133,18.207,5.285,27.018,12.334c5.676,4.697,8.809,11.551,8.809,20.555
			c0,20.947-17.619,37.002-43.656,37.002c-13.313,0-21.926-3.721-26.82-3.721c-2.742,0-5.287,0.979-7.832,2.74l-1.566-39.936
			l2.742-0.197c1.174,17.619,13.313,28.975,29.953,28.975c11.158,0,18.598-6.264,18.598-15.465c0-5.482-4.504-10.377-12.725-13.313
			c-13.117-4.504-23.492-6.07-28.387-10.768c-5.482-5.482-8.223-11.355-8.223-18.6c0-16.836,15.662-30.539,38.762-30.539
			c10.963,0,18.402,2.545,22.318,2.545c2.35,0,4.502-0.588,6.656-2.154L857.219,441.422z"/>
		<path d="M912.227,487.623c0,1.176,0,2.35,0,3.328c0,8.42,0.393,12.139,9.006,13.705v4.502h-48.355v-4.502
			c8.613-1.566,9.006-5.678,9.006-14.684c0-0.783,0-1.566,0-2.35v-52.27c0-11.551-1.176-16.445-10.963-17.619v-4.307l41.307-3.133
			V487.623z M914.186,382.887c0,10.18-7.049,17.619-16.641,17.619c-9.594,0-16.445-7.244-16.445-17.619
			c0-10.18,6.852-17.619,16.445-17.619C907.137,365.268,914.186,372.707,914.186,382.887z"/>
		<path d="M966.258,487.623c0,1.176,0,2.35,0,3.328c0,8.42,0.393,12.139,9.006,13.705v4.502h-48.355v-4.502
			c8.613-1.566,9.006-5.678,9.006-14.684c0-0.783,0-1.566,0-2.35v-86.725c0-11.551-1.176-16.445-10.963-17.621v-4.307l41.307-3.131
			V487.623z"/>
		<path d="M1013.633,465.111c1.566,20.359,12.334,32.693,25.842,32.693c11.551,0,22.514-9.594,28.387-27.018l2.35,0.393
			l-9.789,39.74c-2.35-1.566-4.502-2.348-6.459-2.348c-4.699,0-12.922,2.545-24.08,2.545c-30.148,0-49.531-20.557-49.531-50.9
			c0-12.922,3.916-24.08,11.746-33.281c9.201-10.572,22.318-16.641,35.826-16.641c24.08,0,39.938,14.879,42.092,39.938
			L1013.633,465.111z M1039.67,444.359c0-14.291-4.697-21.535-12.725-21.535c-9.006,0-14.291,8.418-14.291,24.666
			c0,1.566,0,3.133,0.195,4.895l26.82-7.047C1039.67,444.945,1039.67,444.75,1039.67,444.359z"/>
		<path d="M1117.391,487.623c0,1.176,0,2.35,0,3.328c0,8.42,0.391,12.139,9.004,13.705v4.502h-48.354v-4.502
			c8.613-1.566,9.004-5.678,9.004-14.684c0-0.783,0-1.566,0-2.35v-52.27c0-11.551-1.174-16.445-10.963-17.619v-4.307l41.309-3.133
			V487.623z M1119.348,382.887c0,10.18-7.047,17.619-16.641,17.619c-9.592,0-16.445-7.244-16.445-17.619
			c0-10.18,6.854-17.619,16.445-17.619C1112.301,365.268,1119.348,372.707,1119.348,382.887z"/>
		<path d="M1195.305,410.295c3.525,0,6.461,0.588,9.594,2.152l-4.111,30.346h-1.371c-2.35-6.656-6.656-9.789-13.898-9.789
			c-10.768,0-14.096,8.223-14.096,24.863v29.756c0,1.176,0,2.35,0,3.328c0,8.42,0.391,12.139,9.004,13.705v4.502h-48.354v-4.502
			c8.613-1.566,9.004-5.678,9.004-14.684c0-0.783,0-1.566,0-2.35v-51.682c0-11.551-2.545-16.641-10.18-16.641
			c-0.195,0-0.195,0-0.391,0v-4.504l36.805-2.545c2.152,6.068,3.133,12.529,3.133,19.969
			C1174.75,418.518,1185.713,410.295,1195.305,410.295z"/>
		<path d="M1288.098,486.059c0,11.354,0.979,17.031,8.613,18.598v4.502h-32.301c-2.74-2.936-4.307-7.242-5.287-13.115
			c-6.654,9.787-15.855,14.877-26.623,14.877c-16.25,0-26.43-10.375-26.43-26.037c0-19.969,17.619-33.867,51.684-39.74
			c0-0.588,0-1.176,0-1.764c0-0.979,0-2.152,0-3.131c0-11.551-3.916-16.445-14.096-16.445c-13.703,0-24.471,10.963-27.604,23.297
			l-2.938-0.195l3.133-33.674c2.154,2.154,3.916,3.328,6.461,3.328c4.502,0,15.662-6.264,33.672-6.264
			c23.492,0,31.715,9.006,31.715,30.932V486.059z M1234.262,480.967c0,7.637,4.111,12.334,9.787,12.334
			c9.789,0,13.705-11.551,13.705-35.434c0-0.588,0-1.176,0-1.762C1243.463,458.258,1234.262,469.221,1234.262,480.967z"/>
		<path d="M1438.838,487.623c0,1.176,0,2.35,0,3.328c0,8.42,0.393,12.139,9.006,13.705v4.502h-44.049
			c-13.313,0-24.08-0.586-32.889-4.502c-14.096-6.266-22.123-20.361-22.123-39.938c0-32.105,18.99-52.467,51.488-52.467
			c1.762,0,4.502,0,8.223,0.195v-11.549c0-11.551-0.979-16.838-9.396-17.621v-4.307l39.74-3.131V487.623z M1381.479,463.936
			c0,21.926,7.438,34.064,18.402,34.064c6.656,0,8.613-3.328,8.613-11.355v-63.82
			C1391.658,423.02,1381.479,437.703,1381.479,463.936z"/>
		<path d="M1485.822,465.111c1.566,20.359,12.332,32.693,25.842,32.693c11.549,0,22.514-9.594,28.387-27.018l2.348,0.393
			l-9.787,39.74c-2.35-1.566-4.504-2.348-6.461-2.348c-4.699,0-12.92,2.545-24.08,2.545c-30.148,0-49.529-20.557-49.529-50.9
			c0-12.922,3.916-24.08,11.746-33.281c9.201-10.572,22.318-16.641,35.826-16.641c24.08,0,39.938,14.879,42.09,39.938
			L1485.822,465.111z M1511.859,444.359c0-14.291-4.699-21.535-12.725-21.535c-9.006,0-14.291,8.418-14.291,24.666
			c0,1.566,0,3.133,0.195,4.895l26.82-7.047C1511.859,444.945,1511.859,444.75,1511.859,444.359z"/>
		<path d="M549.668,562.277v5.48c-6.068,0.393-9.006,4.504-9.006,12.139v17.619h30.736v-17.619c0-7.635-2.938-11.746-9.006-12.139
			v-5.48h52.466v5.48c-6.07,0.393-9.006,4.504-9.006,12.139v94.164c0,7.832,2.936,11.943,9.006,12.334v5.482h-52.466v-5.482
			c6.068-0.391,9.006-4.697,9.006-12.334V609.85h-30.736v64.211c0,7.832,2.938,11.943,9.006,12.334v5.482h-52.662v-5.482
			c6.068-0.391,9.201-4.697,9.201-12.334v-94.164c0-7.635-3.133-11.746-9.201-12.139v-5.48H549.668z"/>
		<path d="M663.602,670.342c0,1.174,0,2.35,0,3.328c0,8.418,0.393,12.137,9.006,13.703v4.504h-48.356v-4.504
			c8.615-1.566,9.006-5.676,9.006-14.682c0-0.783,0-1.566,0-2.35V618.07c0-11.549-1.174-16.443-10.963-17.619v-4.307l41.307-3.133
			V670.342z M665.561,565.605c0,10.18-7.049,17.619-16.641,17.619c-9.594,0-16.446-7.244-16.446-17.619
			c0-10.182,6.852-17.621,16.446-17.621C658.512,547.984,665.561,555.424,665.561,565.605z"/>
		<path d="M717.242,713.02c0,0.783,0,1.566,0,2.154c0,9.984,0.391,13.898,10.768,14.877v4.504h-50.314v-4.504
			c8.811-1.762,9.201-5.676,9.201-14.682c0-0.783,0-1.566,0-2.35v-96.711c0-0.391,0-0.783,0-1.369c0-9.984-0.195-13.9-9.201-15.271
			v-4.697h34.848c18.402,0,32.889,0,46.006,9.984c11.746,8.809,18.598,23.883,18.598,41.699c0,28.777-17.031,46.396-46.592,46.396
			c-3.916,0-8.223-0.391-13.313-0.979V713.02z M725.66,681.5c11.354,0,18.402-11.941,18.402-34.063
			c0-26.234-9.984-40.916-26.82-41.113v63.822C717.242,677.977,719.395,681.5,725.66,681.5z"/>
		<path d="M815.322,647.828c1.566,20.359,12.334,32.693,25.842,32.693c11.551,0,22.514-9.592,28.387-27.016l2.35,0.391
			l-9.789,39.742c-2.35-1.566-4.502-2.35-6.459-2.35c-4.699,0-12.922,2.545-24.08,2.545c-30.148,0-49.531-20.557-49.531-50.9
			c0-12.92,3.916-24.08,11.746-33.281c9.201-10.57,22.318-16.641,35.826-16.641c24.08,0,39.938,14.879,42.092,39.938
			L815.322,647.828z M841.359,627.076c0-14.291-4.697-21.535-12.725-21.535c-9.006,0-14.291,8.418-14.291,24.668
			c0,1.566,0,3.133,0.195,4.895l26.82-7.049C841.359,627.664,841.359,627.469,841.359,627.076z"/>
		<path d="M942.963,593.012c3.525,0,6.461,0.588,9.594,2.154l-4.111,30.344h-1.371c-2.35-6.656-6.656-9.787-13.898-9.787
			c-10.768,0-14.096,8.221-14.096,24.861v29.758c0,1.174,0,2.35,0,3.328c0,8.418,0.391,12.137,9.004,13.703v4.504H879.73v-4.504
			c8.613-1.566,9.004-5.676,9.004-14.682c0-0.783,0-1.566,0-2.35v-51.684c0-11.551-2.545-16.641-10.18-16.641
			c-0.195,0-0.195,0-0.391,0v-4.502l36.805-2.545c2.152,6.068,3.133,12.529,3.133,19.969
			C922.408,601.234,933.371,593.012,942.963,593.012z"/>
		<path d="M995.818,594.971h14.879c3.523,0,6.459-0.393,9.592-2.742l-5.873,16.445c-1.762-2.35-3.719-2.35-6.656-2.35h-11.941
			v55.012c0,12.139,0.979,17.816,8.418,17.816c6.852,0,12.725-6.461,16.836-19.186l2.35,0.586l-6.068,28.975
			c-7.439,2.936-14.879,4.307-22.711,4.307c-13.311,0-21.338-3.328-26.428-12.137c-2.154-3.916-2.74-11.551-2.74-23.297v-52.076
			H954.51v-4.895c9.006-0.979,14.684-9.592,14.684-24.275c0-1.957-0.195-4.307-0.588-6.852c9.201-0.588,18.207-4.502,27.213-12.725
			V594.971z"/>
		<path d="M1059.441,647.828c1.566,20.359,12.334,32.693,25.842,32.693c11.551,0,22.514-9.592,28.387-27.016l2.35,0.391
			l-9.789,39.742c-2.35-1.566-4.502-2.35-6.459-2.35c-4.699,0-12.922,2.545-24.08,2.545c-30.148,0-49.531-20.557-49.531-50.9
			c0-12.92,3.916-24.08,11.746-33.281c9.201-10.57,22.318-16.641,35.826-16.641c24.08,0,39.938,14.879,42.092,39.938
			L1059.441,647.828z M1085.479,627.076c0-14.291-4.697-21.535-12.725-21.535c-9.006,0-14.291,8.418-14.291,24.668
			c0,1.566,0,3.133,0.195,4.895l26.82-7.049C1085.479,627.664,1085.479,627.469,1085.479,627.076z"/>
		<path d="M1216.057,670.537c0,0.783,0,1.566,0,2.35c0,9.201,0.391,13.313,9.006,14.486v4.504h-48.355v-4.504
			c8.613-1.174,9.006-5.285,9.006-14.486c0-0.783,0-1.566,0-2.35v-40.328c0-11.551-0.98-17.031-7.439-17.031
			c-8.418,0-15.074,10.963-15.074,32.301v24.863c0,1.174,0,2.35,0,3.328c0,8.418,0.391,12.137,9.004,13.703v4.504h-48.354v-4.504
			c8.613-1.566,9.004-5.676,9.004-14.682c0-0.783,0-1.566,0-2.35v-51.684c0-11.551-2.545-16.641-10.18-16.641
			c-0.195,0-0.195,0-0.391,0v-4.502l36.805-2.545c2.152,6.068,3.133,12.529,3.133,19.969c9.592-14.488,20.164-21.73,32.301-21.73
			c17.424,0,21.535,9.984,21.535,31.91V670.537z"/>
		<path d="M1303.955,624.141l-2.742,0.195c-2.348-12.725-11.746-20.557-25.059-20.557c-7.83,0-12.332,3.721-12.332,9.201
			c0,6.07,4.307,8.223,12.137,10.963c8.811,3.133,18.207,5.287,27.018,12.334c5.676,4.699,8.809,11.551,8.809,20.557
			c0,20.947-17.619,37-43.656,37c-13.313,0-21.926-3.719-26.82-3.719c-2.742,0-5.287,0.979-7.832,2.74l-1.566-39.938l2.742-0.195
			c1.174,17.619,13.313,28.975,29.953,28.975c11.158,0,18.598-6.266,18.598-15.467c0-5.482-4.504-10.375-12.725-13.313
			c-13.117-4.502-23.492-6.068-28.387-10.768c-5.482-5.48-8.223-11.354-8.223-18.598c0-16.836,15.662-30.541,38.762-30.541
			c10.963,0,18.402,2.545,22.318,2.545c2.35,0,4.502-0.586,6.656-2.152L1303.955,624.141z"/>
		<path d="M1399.879,668.775c0,11.355,0.979,17.031,8.613,18.598v4.504h-32.303c-2.74-2.938-4.307-7.244-5.285-13.117
			c-6.656,9.789-15.857,14.879-26.625,14.879c-16.248,0-26.43-10.377-26.43-26.037c0-19.969,17.621-33.869,51.684-39.742
			c0-0.588,0-1.174,0-1.762c0-0.979,0-2.154,0-3.133c0-11.551-3.914-16.443-14.096-16.443c-13.703,0-24.471,10.963-27.604,23.295
			l-2.936-0.195l3.133-33.672c2.152,2.152,3.914,3.328,6.459,3.328c4.504,0,15.662-6.266,33.674-6.266
			c23.492,0,31.715,9.006,31.715,30.932V668.775z M1394.592,550.531c-3.328,16.836-10.963,25.449-21.73,25.449
			c-2.152,0-4.307-0.391-6.656-0.979l-11.158-2.938c-2.545-0.783-4.502-0.979-5.482-0.979c-4.893,0-8.221,2.938-9.396,8.811h-8.025
			c3.328-17.033,10.375-25.256,22.121-25.256c2.35,0,4.699,0.197,7.439,0.98l11.551,2.936c1.762,0.393,3.133,0.783,4.307,0.783
			c4.699,0,7.439-2.74,9.201-8.809H1394.592z M1346.041,663.686c0,7.635,4.111,12.334,9.789,12.334
			c9.789,0,13.703-11.551,13.703-35.436c0-0.586,0-1.174,0-1.762C1355.242,640.977,1346.041,651.939,1346.041,663.686z"/>
		<path d="M1463.699,593.012c27.994,0,47.768,19.969,47.768,49.531c0,29.953-21.34,51.096-51.291,51.096
			c-28.387,0-47.572-19.381-47.572-49.727C1412.604,613.764,1433.746,593.012,1463.699,593.012z M1445.102,634.711
			c0,29.953,7.83,47.377,18.988,47.377c9.594,0,15.271-10.18,15.271-29.758c0-30.344-8.027-47.572-19.186-47.572
			C1450.582,604.758,1445.102,614.742,1445.102,634.711z"/>
	</g>
</g>
<g id="Layer_3">
	<rect style="&st2;" width="438" height="568.998"/>
	<g>
		<path style="&st0;" d="M0,568.998v123h438v-123H0z"/>
	</g>
	<g>
		<path style="&st5;" d="M157.342,663.727c-6.939,5.303-16.137,7.953-27.59,7.953c-4.588,0-9.611-0.473-15.066-1.416
			c-5.457-0.945-8.646-1.418-9.572-1.418c-1.08,0-2.131,0.184-3.152,0.549c-1.023,0.367-2.189,1.014-3.5,1.938L96.438,637.9
			l3.238-0.115c1.234,7.789,4.174,13.787,8.82,17.988c4.646,4.203,10.672,6.305,18.076,6.305c5.012,0,8.887-0.926,11.625-2.775
			c2.738-1.852,4.107-4.434,4.107-7.752c0-4.742-4.377-8.502-13.131-11.277c-1.002-0.309-1.754-0.541-2.256-0.695l-9.486-3.123
			c-6.787-2.197-11.76-5.1-14.922-8.705s-4.742-8.203-4.742-13.795c0-7.48,2.697-13.457,8.098-17.93
			c5.396-4.473,12.725-6.709,21.979-6.709c3.355,0,7.684,0.395,12.984,1.186c5.303,0.791,8.918,1.186,10.846,1.186
			c0.732,0,1.541-0.145,2.43-0.434c0.887-0.289,1.928-0.762,3.123-1.418l2.486,25.104l-3.297,0.463
			c-2.738-5.322-6.043-9.438-9.918-12.35c-3.877-2.912-7.992-4.367-12.35-4.367c-3.277,0-5.939,0.781-7.982,2.342
			c-2.043,1.563-3.064,3.539-3.064,5.93c0,2.045,0.693,3.701,2.082,4.975c1.389,1.271,4.184,2.584,8.387,3.932l9.947,3.066
			c9.525,3.047,15.945,6.305,19.262,9.775s4.975,8.193,4.975,14.17C167.754,651.475,164.283,658.426,157.342,663.727z"/>
		<path style="&st5;" d="M227.039,635.096c2.006,3.221,3.008,6.797,3.008,10.73c0,5.051-1.514,9.043-4.541,11.973
			s-7.201,4.395-12.521,4.395c-2.814,0-4.705-0.23-5.668-0.693c-0.965-0.463-1.447-1.813-1.447-4.049v-26.779
			c3.549-0.926,6.141-1.668,7.781-2.229c1.637-0.557,3.113-1.164,4.424-1.82C222.045,629.051,225.033,631.877,227.039,635.096z
			 M224.842,606.031c0-2.236-0.84-3.904-2.516-5.004c-1.678-1.098-4.232-1.648-7.664-1.648c-3.664,0-6.045,0.301-7.145,0.896
			c-1.098,0.6-1.648,1.996-1.648,4.193v16.832c6.633-2.391,11.453-4.801,14.461-7.23
			C223.338,611.643,224.842,608.963,224.842,606.031z M254.34,647.85c0-6.324-2.16-11.857-6.479-16.6
			c-4.318-4.744-10.18-7.982-17.582-9.717c6.9-3.51,11.586-6.584,14.055-9.227c2.467-2.641,3.701-5.639,3.701-8.994
			c0-4.396-1.438-7.547-4.309-9.457c-2.873-1.908-7.779-2.863-14.721-2.863h-53.213v3.297c2.197,0.387,3.701,1.264,4.512,2.633
			s1.215,4.561,1.215,9.572v48.008c0,4.936-0.404,8.107-1.215,9.514c-0.811,1.408-2.314,2.305-4.512,2.689v3.297h46.445
			c10.758,0,18.799-1.83,24.119-5.494C251.68,660.844,254.34,655.293,254.34,647.85z"/>
		<path style="&st5;" d="M341.563,594.289c-2.197,0.387-3.701,1.283-4.512,2.689c-0.809,1.408-1.215,4.58-1.215,9.516v48.008
			c0,4.936,0.406,8.107,1.215,9.514c0.811,1.408,2.314,2.305,4.512,2.689v3.297H305.76v-3.297c2.197-0.385,3.701-1.281,4.512-2.689
			c0.811-1.406,1.215-4.578,1.215-9.514v-33.664h-20.07v33.664c0,4.936,0.404,8.107,1.215,9.514
			c0.809,1.408,2.313,2.305,4.512,2.689v3.297h-35.805v-3.297c2.199-0.385,3.703-1.281,4.512-2.689
			c0.811-1.406,1.215-4.578,1.215-9.514v-48.008c0-4.936-0.404-8.107-1.215-9.516c-0.809-1.406-2.313-2.303-4.512-2.689v-3.297
			h35.805v3.297c-2.199,0.387-3.703,1.283-4.512,2.689c-0.811,1.408-1.215,4.58-1.215,9.516v6.189h20.07v-6.189
			c0-4.936-0.404-8.107-1.215-9.516c-0.811-1.406-2.314-2.303-4.512-2.689v-3.297h35.803V594.289z"/>
	</g>
	<g>
		<path style="&st1;" d="M10,568.998h10.211C19.381,417.586,141.129,145.52,252.322,10h-44.748
			C131.768,114.439,58.01,267.236,10,408.846V568.998z"/>
		<path style="&st1;" d="M10,368.256C58.885,240.754,125.02,109.797,194.029,10h-53.424C93.648,84.129,48.764,168.596,10,255.074
			V368.256z"/>
		<path style="&st1;" d="M382.447,10c-5.031,70.578-35.324,176.299-77.982,265.982c-71.689,150.719-165.037,288.381-209.07,268.684
			C13.24,507.916,240.27-16.754,326.074,21.629c64.508,28.855-127.777,474.223-189.85,446.457
			C78.717,442.359,232.586,67.195,293.746,94.553c49.932,22.334-86.369,329.486-131.861,309.137
			c-37.883-16.945,66.285-256.252,98.537-241.824c28.451,12.727-48.164,208.898-79.809,194.744
			c-20.229-9.049,34.934-147.484,56.24-137.953c14.559,6.512-21.723,95.074-34.504,89.357c-7.42-3.318,7.973-45.563,16.488-41.754
			c0,0,5.424,2.564-4.592,12.713c-3.283,3.326-1.707,3.816-1.707,3.816c3.211,1.436,18.865-27.4,10.621-31.088
			s-40.898,69.984-28.508,75.527c15.016,6.717,72.199-116.879,49.387-127.084c-26.514-11.859-94.514,163.322-70.355,174.404
			c38.201,17.527,129.027-223.016,98.734-236.566c-42.506-19.014-163.92,265.986-117.338,286.885
			c52.67,23.631,202.924-335.645,152.949-357.998c-76.15-34.064-268.844,402.969-192.191,432.096
			C201.547,531.531,365.084,144.262,368.711,10h-97.557C158.549,128.865,14.436,448.189,37.77,568.998h136.297
			C285.977,457.299,408.713,175.727,426.693,10H382.447z"/>
		<path style="&st1;" d="M428,86.572C384.654,243.23,295.363,437.414,206.611,553.449c-3.975,5.197-7.996,10.393-12.051,15.549
			h63.545C322.928,468.182,383.602,342.709,428,220.725V86.572z"/>
		<path style="&st1;" d="M60.328,10H10v92.32C26.324,70.92,43.143,40.064,60.328,10z"/>
		<path style="&st1;" d="M345.098,568.998H428V408.996C402.025,464.391,374.174,518.254,345.098,568.998z"/>
		<path style="&st1;" d="M428,251.508c-42.201,110.904-95.426,222.615-152.492,317.49h57
			C366.615,509.777,398.82,445.463,428,379.135V251.508z"/>
		<path style="&st1;" d="M10,231.479C46.256,154.002,86.75,78.453,128.85,10H72.006C50.68,46.213,29.922,83.77,10,122.156V231.479z"
			/>
	</g>
</g>
</svg>
