<?xml version="1.0" encoding="utf-8"?>
<!-- Generator: Adobe Illustrator 22.0.1, SVG Export Plug-In . SVG Version: 6.00 Build 0)  -->
<svg version="1.1" baseProfile="tiny" id="Camada_1"
	 xmlns="http://www.w3.org/2000/svg" xmlns:xlink="http://www.w3.org/1999/xlink" x="0px" y="0px" viewBox="0 0 200.5 71.5"
	 xml:space="preserve">
<path fill="#FFFFFF" d="M20.6,4.2l-2,2.1c-2-2.1-4.5-3.1-7.1-3.1c-2.5,0-4.4,0.7-6,2.3s-2.4,3.6-2.4,5.9c0,2,0.8,3.9,2.3,5.6
	s3.6,2.5,6.3,2.5c4,0,6.6-1.8,7.6-5.4h-5.5v-2.9h8.6c0,1.5-0.1,2.5-0.3,3.4c-0.2,0.8-0.6,1.8-1.1,2.8c-0.6,1-1.3,2-2.3,2.7
	c-1,0.8-2,1.4-3.1,1.7c-1.1,0.4-2.4,0.5-3.9,0.5c-3.5,0-6.2-1.1-8.3-3.4S0.3,14,0.3,11.1c0-3.1,1.1-5.7,3.2-7.8s4.7-3.2,7.7-3.2
	c1.8,0,3.4,0.3,4.9,0.8C17.5,1.6,19,2.7,20.6,4.2z"/>
<path fill="#FFFFFF" d="M35.1,0.8h4.4c2.2,0,3.9,0.6,5.3,1.7c1.3,1.1,2,2.5,2,4.3c0,1.4-0.4,2.6-1.3,3.7c-0.9,1.1-2.3,1.8-4.1,2.3
	l5.9,9H44l-5.6-8.6h-0.6v8.6h-2.7L35.1,0.8L35.1,0.8z M37.9,3.4v7.3c4,0.1,6.1-1.2,6.1-3.7c0-0.9-0.3-1.6-0.7-2.2s-1.1-1-1.9-1.1
	C40.5,3.5,39.4,3.4,37.9,3.4z"/>
<polygon fill="#FFFFFF" points="67,6.3 73.8,21.8 76.5,21.8 67,0.1 57.5,21.8 60.3,21.8 "/>
<path fill="#FFFFFF" d="M84.5,0.8h3.1l5,8.4l4.9-8.4h3.1L94,12.1v9.6h-2.7v-9.5L84.5,0.8z"/>
<path fill="#FFFFFF" d="M112.5,0.8h2.7V19h6.6v2.8h-9.3C112.5,21.8,112.5,0.8,112.5,0.8z"/>
<path fill="#FFFFFF" d="M133.1,0.8h2.7v20.9h-2.7V0.8z"/>
<path fill="#FFFFFF" d="M148.7,0l14.9,15.9V0.8h2.7v21.9L151.5,6.9v14.9h-2.7L148.7,0L148.7,0z"/>
<path fill="#FFFFFF" d="M198.6,4.2l-2,2.1c-2-2.1-4.5-3.1-7.1-3.1c-2.4,0-4.3,0.8-5.9,2.4c-1.6,1.6-2.4,3.6-2.4,5.9
	c0,2,0.8,3.9,2.3,5.6s3.6,2.5,6.3,2.5c4,0,6.6-1.8,7.6-5.4h-5.5v-2.9h8.6c0,1.5-0.1,2.5-0.3,3.4c-0.2,0.8-0.6,1.8-1.1,2.8
	s-1.3,2-2.3,2.7c-1,0.8-2,1.4-3.1,1.7c-1.1,0.4-2.4,0.5-3.9,0.5c-3.5,0-6.2-1.1-8.3-3.4s-3.1-4.9-3.1-7.8c0-3.1,1.1-5.7,3.2-7.8
	c2.1-2.2,4.7-3.2,7.7-3.2c1.8,0,3.4,0.3,4.9,0.8C195.5,1.6,197,2.7,198.6,4.2z"/>
<path fill="#FFFFFF" d="M9.4,49.8L19,71.5h-2.9l-2.4-5.3H5.2l-2.3,5.3H0L9.4,49.8z M9.4,56.3l-3.2,7.4h6.5L9.4,56.3z"/>
<path fill="#FFFFFF" d="M31.1,50.5h11.2v2.9h-8.5v5.2h8.5v2.8h-8.4v10h-2.7L31.1,50.5L31.1,50.5z"/>
<path fill="#FFFFFF" d="M55.2,50.5h11.2v2.9H58v5.2h8.5v2.8H58v10h-2.7L55.2,50.5L55.2,50.5z"/>
<path fill="#FFFFFF" d="M79.5,50.5h2.7v20.9h-2.7V50.5z"/>
<path fill="#FFFFFF" d="M96.9,50.5h2.7v18.1h6.6v2.8h-9.3C96.9,71.4,96.9,50.5,96.9,50.5z"/>
<path fill="#FFFFFF" d="M118.8,50.5h2.7v20.9h-2.7V50.5z"/>
<path fill="#FFFFFF" d="M143.4,49.8l9.5,21.8H150l-2.4-5.3h-8.5l-2.3,5.3H134L143.4,49.8z M143.4,56.3l-3.2,7.4h6.5L143.4,56.3z"/>
<path fill="#FFFFFF" d="M162.5,50.5h12.3v2.9H170v18.1h-2.7V53.4h-4.8V50.5z"/>
<path fill="#FFFFFF" d="M187.6,50.5h11.2v2.9h-8.5v5.2h8.5v2.8h-8.5v7.2h8.5v2.8h-11.2V50.5z"/>
<rect x="0.5" y="35.1" fill="#FFFFFF" width="200" height="1.5"/>
</svg>
