<?xml version="1.0" encoding="utf-8"?>
<!-- Generator: Adobe Illustrator 22.0.1, SVG Export Plug-In . SVG Version: 6.00 Build 0)  -->
<svg version="1.1" baseProfile="tiny" id="Camada_1"
	 xmlns="http://www.w3.org/2000/svg" xmlns:xlink="http://www.w3.org/1999/xlink" x="0px" y="0px" viewBox="0 0 289.2 115.1"
	 xml:space="preserve">
<g>
	<g>
		<path fill="#FFFFFF" d="M175.3,29.8c2.7-0.5,5.4-1.5,8.1-1.8c3.6-0.4,5.5-2,6.6-5.6c2.5-8.3,2.7-8.2-5.8-8c-1.2,0-2.4,0.1-3.7,0
			c-3.7-0.3-5.8,1.3-6.7,4.9c-0.5,2.3-1.3,4.5-2,6.7C170.9,29.4,171.8,30.5,175.3,29.8z"/>
		<path fill="#FFFFFF" d="M287.4,70.9c-8.4-1.8-11.8,0.1-14.2,8.4c-0.2,0.6-0.4,1.3-0.6,1.9c-0.6,1.8,0.2,2.5,1.8,2.7
			c0.1,0,2.1-0.3,3-0.5c2.7-0.6,5.5-1.3,8.3-1.9c0.7-0.2,1.1-0.7,1.3-1.4c0.7-2.2,1.5-4.4,2.2-6.6C289.5,71.9,288.9,71.3,287.4,70.9
			z"/>
		<path fill="#FFFFFF" d="M274.7,66.8c0.8-2.8-0.7-4.8-2.6-6.3c-1.9-1.6-2.9,0.6-4.1,1.6c-2.4,2-4.5,4.3-7,6.1
			c-4.6,3.4-10.3,3.1-13.4-0.4c-2.9-3.3-2.7-4.4,1.4-5.9c6.2-2.3,12.3-4.8,16.7-10c6.5-7.7,3.1-17.8-6.6-19.8
			c-2.5-0.5-5.1-0.5-7.6,0.2c-13.3,3.6-20.5,13.1-23,25.9c-1.1,5.8-4.4,8.4-8.7,10.7c-5.2,2.8-10.6,1.4-13.2-3.1
			c-3.6-6.2-1.4-19.4,4.1-24c0.8-0.7,1.8-1.6,3-1c1.1,0.5,1.4,1.7,1.3,2.9c-0.1,2-0.5,4-0.5,6c0,2.3,1.3,4,3.5,3.2
			c3.6-1.3,7.3-2.8,10.4-5.1c0.9-0.7,1.4-1.7,1.5-2.9c0.5-4.3-0.8-7.9-4.3-10.6c-4.1-3.1-8.8-3.2-13.4-2
			c-11.1,2.7-22.1,15.3-23.6,27.3c-0.4,3.6-2.4,5.6-4.9,7.5c-0.9,0.7-1.9,1.5-3,0.8c-0.9-0.6-0.5-1.9-0.5-2.8
			c0.1-1.4,0.3-2.9,0.6-4.3c1.9-8.4,4.9-16.4,7.5-24.6c1.1-3.6,0-4.9-3.6-4.2c-3.8,0.8-7.6,1.8-11.4,2.4c-1.9,0.3-2.9,1.3-3.5,3
			c-2.7,7.5-5.3,15.1-6.6,23.1c-0.4,2.5-1.8,3.7-3.7,4.7c-1.5,0.8-3.2,1.1-4.4,0c-0.7-0.6-0.6-1.2-0.2-1.8c0.4-0.5,1.7-2.8,2-3.4
			c3.4-7,6.1-14.1,5.5-22.1c-0.3-5-3.8-7.3-8.6-5.7c-3.2,1.1-5.5,3.3-7.4,6c-5.2,7.7-6.4,16-3.4,24.8c0.6,1.8,0.6,3.2-0.8,4.5
			c-1.2,1.1-2.3,2.5-3.6,3.5c-1.4,1.1-3.1,2-4.9,1c-1.8-1.1-2.3-3-2-5c0.3-2.4,0.7-4.8,1.3-7.2c1.9-8.2,5.1-16.1,7.7-24.1
			c1-3.2,0.2-4.4-3-3.8c-4.3,0.7-8.5,1.6-12.8,2.4c-1.5,0.3-2.4,0.9-2.9,2.4c-2.5,7.5-5.6,14.8-6.6,22.7c-0.5,3.4-2.2,5.7-4.7,7.6
			c-1.1,0.8-2.3,2.4-3.7,1.7c-0.7-0.3-1-0.9-1-1.5c-0.1-0.8,1.6-13,2.9-18.2c3.4-14.6,6.9-29.2,10.4-43.8c1-4.1-0.5-5.7-4.7-5
			c-2.9,0.5-5.7,1.2-8.5,1.5c-3.1,0.3-4.5,1.8-5.2,4.9c-1.7,8.2-3.8,16.2-5.7,24.4c-0.3,1.5-0.5,2.5-2.5,1.5
			c-3.2-1.4-6.6-1.3-9.8-0.3c-13.4,4.2-20.8,14-24.2,27c-1.2,4.5-4.2,6.8-7.5,9.2c-1.7,1.3-2.7,0.3-2.9-1.5
			c-0.1-0.9,0.1-1.8,0.2-2.6c1.6-9.9,5.3-19.3,7.9-28.9c0.8-3,0.2-3.8-3-3.6c-3.5,0.2-6.3,2-9.2,3.7c-1.7,1-3,1.5-4.5-0.5
			c-1.7-2.2-4.2-3.1-7-3.4c-6.7-0.7-12.2,2.3-17.2,6.1C4.6,46.1-1.6,56.6,0.4,70.5c1.5,10.5,10.4,15.9,19.3,12
			c3.5-1.5,6.1-4,8.7-6.7c0.9-0.9,1.5-2.2,3-2.6c0.3,1.1,0.6,2,0.9,3c2.1,6.7,6.8,9,13.4,6.8c4.2-1.5,7.4-4.4,10.6-7.3
			c1.7-1.6,2.3-1.5,3.5,0.6c4.4,7.7,11,9.5,18.9,5.4c3.8-2,6.8-5,10.1-8.5c0.5,1.5,0.8,2.6,1.2,3.6c2.4,6.2,7.5,8.5,13.6,6
			c3.8-1.5,6.8-4.2,9.8-6.9c1.6-1.5,2-1.2,3,0.6c3,5.8,8.3,8.1,14.8,7.1c6.6-1,11.8-4.4,16.2-9.2c1.5-1.6,2.6-2.4,4.7-1.1
			c2.2,1.3,4.9,1.5,7.1,0.8c2.8-0.9,3.4,0.1,4.3,2.4c2.6,7.2,8.1,9.1,14.9,5.6c3.4-1.7,6.3-4.1,9.1-6.8c1.4-1.4,2.2-1.5,3.5,0.4
			c4.4,6.6,10.8,8.8,18.5,7.8c6.9-0.9,12.6-4.2,17.7-8.7c1.3-1.1,2-1.5,3.3,0.3c5.3,7.7,13.2,10.4,22.1,7.8
			c8.3-2.4,14.6-7.8,20.6-13.7C273.9,68.6,274.4,67.7,274.7,66.8z M35.5,48.3c-2.2,8.2-6.1,15.4-11.7,21.8c-0.9,1.1-2,2.1-3.2,3
			c-3.6,2.6-6.4,1.3-6.9-3.1c-0.1-0.7,0-1.3,0-2c1.1-10.3,4.8-19.5,11.9-27.2c1.1-1.1,2.4-2,3.9-2.5c3.3-1,5.7,0.4,6.5,3.7
			C36.5,44.2,36.1,46.3,35.5,48.3z M93.1,45.1c-1.6,10.6-6.3,19.6-13.8,27.1c-1.4,1.4-3.1,2.7-5.3,2c-1.2-0.4-2.3-1.8-2.5-4
			c-0.2-3.6,0.6-6.6,1.1-8.5c1.9-7.4,4.6-14.9,10.3-21.2c2-2.1,4.4-3.6,7.4-2.2C93.3,39.6,93.5,42.4,93.1,45.1z M242.3,56.3
			c0.4-3.1,1.9-6.7,4.1-9.6c2-2.8,4.6-5,7.3-5.9c4.1-1.3,6.9,1.1,6.2,5.4c-0.4,2.5-1.9,4.3-3.6,5.9c-3.4,3.1-7.5,4.7-11.9,5.8
			C243,58.2,242.1,58.1,242.3,56.3z"/>
	</g>
	<path fill="#FFFFFF" d="M10.5,106.8c0,0.3-0.1,0.7-0.2,1.1c-0.1,0.4-0.2,0.9-0.2,1.5c-1.1,0.3-2.2,0.4-3.3,0.4
		c-0.6,0-1.3-0.1-1.8-0.2s-1.1-0.3-1.6-0.6c-0.5-0.3-1-0.7-1.3-1.2c-0.4-0.5-0.7-1.1-0.9-1.8c-0.2-0.7-0.3-1.4-0.3-2.2
		c0-1,0.2-1.9,0.5-2.9c0.3-0.9,0.8-1.7,1.4-2.2c0.6-0.6,1.3-1,2.1-1.2s1.6-0.3,2.5-0.3c0.5,0,1,0,1.6,0.1c0.5,0.1,1.2,0.2,1.9,0.4
		l0.2,2.6c-1.2-0.4-2.2-0.6-3.1-0.6c-0.5,0-1,0.1-1.5,0.3c-0.5,0.2-0.9,0.5-1.2,0.9c-0.3,0.4-0.6,0.8-0.7,1.4
		c-0.1,0.5-0.2,1-0.2,1.6c0,0.7,0.1,1.4,0.3,1.9c0.2,0.5,0.6,1,1.2,1.3s1.2,0.4,1.9,0.4c0.4,0,0.8,0,1.3-0.1S9.9,107.1,10.5,106.8z"
		/>
	<path fill="#FFFFFF" d="M19.4,97.3c0.9,0,1.8,0.1,2.6,0.4c0.8,0.3,1.5,0.7,2.1,1.2s1,1.2,1.3,2s0.4,1.6,0.4,2.4
		c0,0.9-0.2,1.8-0.5,2.6c-0.3,0.8-0.8,1.6-1.3,2.2s-1.3,1.1-2.2,1.4c-0.9,0.3-1.8,0.5-2.8,0.5c-0.9,0-1.8-0.1-2.6-0.4
		c-0.8-0.3-1.5-0.7-2.1-1.2s-1-1.2-1.3-2s-0.5-1.6-0.5-2.4c0-0.9,0.1-1.7,0.4-2.5c0.3-0.8,0.7-1.5,1.3-2.1s1.3-1.1,2.3-1.4
		C17.5,97.4,18.4,97.3,19.4,97.3z M19.4,99.7c-0.7,0-1.3,0.2-1.8,0.5s-0.9,0.8-1.2,1.5c-0.3,0.7-0.4,1.4-0.4,2.2
		c0,0.7,0.1,1.3,0.3,1.8c0.2,0.5,0.6,1,1.1,1.3s1.1,0.5,1.8,0.5c0.7,0,1.3-0.2,1.8-0.5s0.9-0.8,1.2-1.5c0.3-0.7,0.4-1.4,0.4-2.2
		c0-0.7-0.1-1.3-0.3-1.8c-0.2-0.5-0.5-1-1-1.3C20.7,99.9,20.1,99.7,19.4,99.7z"/>
	<path fill="#FFFFFF" d="M27.9,109.6c0.1-1.3,0.2-3.3,0.3-6s0.2-4.7,0.2-6c0.7,0,1.2,0,1.6,0c0.5,0,1,0,1.6,0l-0.1,1.9
		c0.3-0.4,0.5-0.7,0.7-0.9c0.2-0.2,0.5-0.4,0.8-0.6s0.7-0.4,1.2-0.5c0.4-0.1,0.9-0.2,1.4-0.2c0.4,0,0.7,0,1,0.1s0.6,0.2,0.9,0.3
		c0.3,0.1,0.5,0.3,0.7,0.4c0.2,0.2,0.4,0.3,0.5,0.5s0.3,0.5,0.4,0.9c0.2-0.3,0.3-0.5,0.5-0.7c0.1-0.2,0.3-0.4,0.6-0.6
		c0.2-0.2,0.5-0.4,0.8-0.5s0.6-0.2,1-0.3c0.4-0.1,0.8-0.1,1.2-0.1c0.7,0,1.3,0.1,1.9,0.3s1.1,0.6,1.4,1.1c0.3,0.5,0.5,1.1,0.5,1.8
		c0,0.4,0,0.9-0.1,1.7c-0.1,0.7-0.1,1.9-0.2,3.6c-0.1,1.7-0.1,2.9-0.1,3.8c-0.6,0-1.1,0-1.5,0c-0.5,0-1.1,0-1.8,0
		c0.1-1,0.1-2.1,0.2-3.2l0.1-2.7c0-0.7,0.1-1.3,0.1-1.7c0-0.6-0.1-1-0.3-1.3s-0.4-0.5-0.7-0.6s-0.6-0.2-0.9-0.2
		c-0.4,0-0.7,0.1-1,0.2s-0.6,0.4-0.8,0.7s-0.4,0.7-0.6,1.1c-0.1,0.4-0.2,1-0.3,1.7s-0.1,1.7-0.2,2.8l-0.1,3.3c-0.7,0-1.2,0-1.6,0
		c-0.4,0-1,0-1.7,0c0.1-0.6,0.1-1.8,0.2-3.7c0.1-1.9,0.2-3.1,0.2-3.8c0-0.3,0-0.6-0.1-0.9c-0.1-0.2-0.2-0.5-0.3-0.7
		s-0.4-0.4-0.6-0.5c-0.2-0.1-0.5-0.2-0.8-0.2c-0.6,0-1,0.2-1.5,0.5c-0.4,0.4-0.7,0.8-0.9,1.5c-0.2,0.6-0.3,1.8-0.4,3.5
		c-0.1,1.8-0.1,3.1-0.1,4.2c-0.7,0-1.3,0-1.6,0C29.2,109.6,28.6,109.6,27.9,109.6z"/>
	<path fill="#FFFFFF" d="M61.7,109.6c-0.7,0-1.2,0-1.6,0c-0.5,0-1,0-1.6,0v-2c-0.2,0.3-0.4,0.6-0.6,0.8s-0.4,0.4-0.7,0.6
		s-0.6,0.3-0.9,0.5c-0.3,0.1-0.7,0.2-1.1,0.3c-0.4,0.1-0.8,0.1-1.3,0.1c-0.9,0-1.7-0.1-2.3-0.4c-0.7-0.3-1.2-0.6-1.6-1.2
		s-0.6-1.3-0.6-2.2v-0.2l0.2-3.1l0.2-4c0-0.3,0-0.7,0-1.2c0.7,0,1.3,0,1.8,0c0.4,0,1,0,1.6,0l-0.4,5.4c0,0.4,0,0.8-0.1,1.1
		c0,0.3,0,0.5,0,0.6c0,0.6,0.1,1,0.3,1.4s0.5,0.7,0.9,0.9s0.9,0.3,1.4,0.3s0.9-0.1,1.3-0.3c0.4-0.2,0.7-0.4,1-0.7
		c0.3-0.3,0.5-0.7,0.7-1.1c0.1-0.3,0.2-0.8,0.3-1.4c0.1-0.4,0.1-1.2,0.2-2.2c0.1-1.3,0.1-2.6,0.1-3.9c0.8,0,1.4,0,1.8,0
		c0.5,0,1,0,1.6,0c-0.1,1.1-0.2,2.5-0.3,4.2s-0.2,3.1-0.2,4.2C61.8,107.1,61.8,108.3,61.7,109.6z"/>
	<path fill="#FFFFFF" d="M64.6,109.6c0.2-1.8,0.3-3.8,0.5-6c0.1-2.2,0.2-4.2,0.2-6c0.7,0,1.3,0,1.7,0c0.5,0,1.1,0,1.6,0l-0.1,2
		c0.2-0.3,0.5-0.6,0.6-0.8c0.2-0.2,0.4-0.4,0.7-0.6c0.3-0.2,0.6-0.4,0.9-0.5s0.7-0.2,1.1-0.3c0.4-0.1,0.8-0.1,1.3-0.1
		c0.7,0,1.4,0.1,2,0.3c0.6,0.2,1.2,0.5,1.6,0.8c0.4,0.4,0.7,0.8,0.8,1.3c0.1,0.5,0.2,0.9,0.2,1.5c0,0.2,0,0.6,0,1l-0.2,5.2
		c0,0.7-0.1,1.5-0.1,2.3c-0.6,0-1.2,0-1.6,0c-0.6,0-1.2,0-1.8,0c0.1-0.7,0.1-1.9,0.2-3.6s0.1-2.8,0.1-3.4s-0.1-1.1-0.3-1.5
		c-0.2-0.4-0.5-0.7-0.9-0.9c-0.4-0.2-0.9-0.3-1.3-0.3c-0.5,0-0.9,0.1-1.3,0.3c-0.4,0.2-0.8,0.4-1.1,0.8c-0.3,0.4-0.6,0.8-0.7,1.3
		c-0.2,0.6-0.3,1.5-0.4,2.7c-0.1,1.1-0.1,2.6-0.2,4.5c-0.6,0-1.2,0-1.6,0C65.9,109.6,65.3,109.6,64.6,109.6z"/>
	<path fill="#FFFFFF" d="M80.2,109.6c0.1-1.2,0.2-2.2,0.3-3c0.1-1.3,0.2-2.7,0.2-4.4c0.1-1.6,0.1-3.2,0.1-4.7c0.8,0,1.3,0,1.7,0
		c0.4,0,0.9,0,1.7,0c-0.1,1.4-0.2,2.7-0.3,3.9c-0.1,1.2-0.1,2.7-0.1,4.3s0,2.9,0,3.8c-0.7,0-1.3,0-1.7,0
		C81.6,109.6,81,109.6,80.2,109.6z M80.8,95.5c0-0.8,0-1.4,0-1.9v-0.4c0.7,0,1.3,0,1.8,0c0.6,0,1.2,0,1.7,0c0,0.2,0,0.4,0,0.7
		l-0.1,1.6c-0.6,0-1.2,0-1.7,0C82.1,95.5,81.5,95.5,80.8,95.5z"/>
	<path fill="#FFFFFF" d="M96.1,106.8c0,0.3-0.1,0.7-0.2,1.1s-0.2,0.9-0.2,1.5c-1.1,0.3-2.2,0.4-3.3,0.4c-0.6,0-1.3-0.1-1.8-0.2
		s-1.1-0.3-1.6-0.6c-0.5-0.3-1-0.7-1.3-1.2c-0.4-0.5-0.7-1.1-0.9-1.8c-0.2-0.7-0.3-1.4-0.3-2.2c0-1,0.2-1.9,0.5-2.9
		c0.3-0.9,0.8-1.7,1.4-2.2c0.6-0.6,1.3-1,2.1-1.2s1.6-0.3,2.5-0.3c0.5,0,1,0,1.6,0.1c0.5,0.1,1.2,0.2,1.9,0.4l0.2,2.6
		c-1.2-0.4-2.2-0.6-3.1-0.6c-0.5,0-1,0.1-1.5,0.3c-0.5,0.2-0.9,0.5-1.2,0.9c-0.3,0.4-0.6,0.8-0.7,1.4c-0.1,0.5-0.2,1-0.2,1.6
		c0,0.7,0.1,1.4,0.3,1.9c0.2,0.5,0.6,1,1.2,1.3s1.2,0.4,1.9,0.4c0.4,0,0.8,0,1.3-0.1S95.5,107.1,96.1,106.8z"/>
	<path fill="#FFFFFF" d="M99.4,100.2c0.1-0.6,0.2-1,0.2-1.2s0.1-0.6,0.1-1c1.1-0.3,2-0.4,2.8-0.5s1.6-0.2,2.4-0.2
		c0.9,0,1.7,0.1,2.4,0.3c0.7,0.2,1.3,0.5,1.7,1c0.4,0.4,0.6,1.1,0.6,1.9c0,0.5-0.1,1.6-0.2,3.4s-0.2,3.7-0.2,5.7c-0.6,0-1.2,0-1.7,0
		s-1,0-1.7,0c0.1-1,0.2-2.1,0.3-3.3l0.2-2.9c-0.3,0.2-0.5,0.3-0.7,0.4s-0.3,0.2-0.5,0.2c-0.2,0.1-0.5,0.2-1,0.3
		c-0.5,0.1-0.9,0.3-1.2,0.4s-0.6,0.2-0.8,0.3s-0.4,0.3-0.6,0.4c-0.2,0.2-0.3,0.3-0.4,0.5s-0.1,0.4-0.1,0.6c0,0.3,0.1,0.6,0.3,0.9
		c0.2,0.2,0.4,0.4,0.7,0.5c0.3,0.1,0.6,0.1,1,0.1c0.3,0,0.5,0,0.8-0.1s0.7-0.1,1.1-0.3c-0.2,0.4-0.4,1.1-0.6,2
		c-0.6,0.1-1,0.2-1.3,0.2s-0.6,0-0.9,0c-1,0-1.8-0.1-2.4-0.4s-1.1-0.7-1.4-1.3c-0.3-0.6-0.5-1.2-0.5-1.8c0-0.3,0.1-0.7,0.2-1
		s0.3-0.6,0.5-0.9s0.5-0.5,0.9-0.8s0.9-0.5,1.6-0.7s1.6-0.5,2.7-0.7c0.3-0.1,0.6-0.1,0.9-0.2s0.6-0.2,0.8-0.3s0.4-0.2,0.5-0.3
		c0.1-0.1,0.2-0.3,0.3-0.4c0.1-0.1,0.1-0.3,0.1-0.5c0-0.3-0.1-0.6-0.3-0.8s-0.5-0.4-0.8-0.4c-0.3-0.1-0.7-0.1-1.1-0.1
		C102.7,99.2,101.1,99.5,99.4,100.2z"/>
	<path fill="#FFFFFF" d="M121.6,106.8c0,0.3-0.1,0.7-0.2,1.1s-0.2,0.9-0.2,1.5c-1.1,0.3-2.2,0.4-3.3,0.4c-0.6,0-1.3-0.1-1.8-0.2
		s-1.1-0.3-1.6-0.6c-0.5-0.3-1-0.7-1.3-1.2c-0.4-0.5-0.7-1.1-0.9-1.8c-0.2-0.7-0.3-1.4-0.3-2.2c0-1,0.2-1.9,0.5-2.9
		c0.3-0.9,0.8-1.7,1.4-2.2c0.6-0.6,1.3-1,2.1-1.2s1.6-0.3,2.5-0.3c0.5,0,1,0,1.6,0.1c0.5,0.1,1.2,0.2,1.9,0.4l0.2,2.6
		c-1.2-0.4-2.2-0.6-3.1-0.6c-0.5,0-1,0.1-1.5,0.3c-0.5,0.2-0.9,0.5-1.2,0.9c-0.3,0.4-0.6,0.8-0.7,1.4c-0.1,0.5-0.2,1-0.2,1.6
		c0,0.7,0.1,1.4,0.3,1.9c0.2,0.5,0.6,1,1.2,1.3s1.2,0.4,1.9,0.4c0.4,0,0.8,0,1.3-0.1S121.1,107.1,121.6,106.8z M119.1,110.6l-1.5,3
		c-0.6,0-1.2,0-1.7,0c-0.6,0-1.2,0-1.8,0c0.8-0.9,1.6-1.9,2.4-3.1c0.3,0.1,0.8,0.1,1.4,0.1C118.3,110.7,118.7,110.7,119.1,110.6z"/>
	<path fill="#FFFFFF" d="M124.9,100.2c0.1-0.6,0.2-1,0.2-1.2s0.1-0.6,0.1-1c1.1-0.3,2-0.4,2.8-0.5c0.8-0.1,1.6-0.2,2.4-0.2
		c0.9,0,1.7,0.1,2.4,0.3c0.7,0.2,1.3,0.5,1.7,1c0.4,0.4,0.6,1.1,0.6,1.9c0,0.5-0.1,1.6-0.2,3.4c-0.1,1.8-0.2,3.7-0.2,5.7
		c-0.6,0-1.2,0-1.7,0s-1,0-1.7,0c0.1-1,0.2-2.1,0.3-3.3l0.2-2.9c-0.3,0.2-0.5,0.3-0.7,0.4s-0.3,0.2-0.5,0.2c-0.2,0.1-0.5,0.2-1,0.3
		c-0.5,0.1-0.9,0.3-1.2,0.4s-0.6,0.2-0.8,0.3s-0.4,0.3-0.6,0.4c-0.2,0.2-0.3,0.3-0.4,0.5s-0.1,0.4-0.1,0.6c0,0.3,0.1,0.6,0.3,0.9
		c0.2,0.2,0.4,0.4,0.7,0.5c0.3,0.1,0.6,0.1,1,0.1c0.3,0,0.5,0,0.8-0.1s0.7-0.1,1.1-0.3c-0.2,0.4-0.4,1.1-0.6,2
		c-0.6,0.1-1,0.2-1.3,0.2s-0.6,0-0.9,0c-1,0-1.8-0.1-2.4-0.4s-1.1-0.7-1.4-1.3c-0.3-0.6-0.5-1.2-0.5-1.8c0-0.3,0.1-0.7,0.2-1
		s0.3-0.6,0.5-0.9s0.5-0.5,0.9-0.8s0.9-0.5,1.6-0.7s1.6-0.5,2.7-0.7c0.3-0.1,0.6-0.1,0.9-0.2c0.3-0.1,0.6-0.2,0.8-0.3
		s0.4-0.2,0.5-0.3c0.1-0.1,0.2-0.3,0.3-0.4s0.1-0.3,0.1-0.5c0-0.3-0.1-0.6-0.3-0.8s-0.5-0.4-0.8-0.4c-0.3-0.1-0.7-0.1-1.1-0.1
		C128.3,99.2,126.7,99.5,124.9,100.2z M127,95.7c0-0.6,0.1-1.1,0.2-1.5s0.3-0.7,0.5-0.9c0.2-0.2,0.5-0.3,0.8-0.3c0.1,0,0.2,0,0.3,0
		s0.2,0.1,0.3,0.1s0.2,0.1,0.3,0.1s0.2,0.1,0.5,0.3l0.6,0.4c0.1,0.1,0.3,0.2,0.4,0.2c0.1,0.1,0.3,0.1,0.4,0.1c0.1,0,0.2,0,0.3-0.1
		c0.1,0,0.2-0.1,0.2-0.2s0.1-0.2,0.1-0.3c0-0.1,0-0.3,0.1-0.5c0.3,0,0.6,0,0.7,0s0.4,0,0.8,0c0,0.5-0.1,1-0.2,1.4
		c-0.1,0.4-0.3,0.7-0.5,0.9c-0.2,0.2-0.6,0.4-1,0.4c-0.1,0-0.3,0-0.4-0.1c-0.1,0-0.3-0.1-0.5-0.2s-0.4-0.3-0.8-0.5
		c-0.4-0.3-0.7-0.4-0.8-0.5s-0.2-0.1-0.4-0.1c-0.1,0-0.3,0-0.3,0.1c-0.1,0.1-0.2,0.2-0.2,0.3c0,0.1,0,0.3-0.1,0.6
		c-0.3,0-0.6,0-0.7,0C127.5,95.7,127.3,95.7,127,95.7z"/>
	<path fill="#FFFFFF" d="M144.2,97.3c0.9,0,1.8,0.1,2.6,0.4s1.5,0.7,2.1,1.2s1,1.2,1.3,2s0.4,1.6,0.4,2.4c0,0.9-0.2,1.8-0.5,2.6
		c-0.3,0.8-0.8,1.6-1.3,2.2s-1.3,1.1-2.2,1.4s-1.8,0.5-2.8,0.5c-0.9,0-1.8-0.1-2.6-0.4s-1.5-0.7-2.1-1.2s-1-1.2-1.3-2
		s-0.5-1.6-0.5-2.4c0-0.9,0.1-1.7,0.4-2.5c0.3-0.8,0.7-1.5,1.3-2.1s1.3-1.1,2.3-1.4C142.3,97.4,143.3,97.3,144.2,97.3z M144.2,99.7
		c-0.7,0-1.3,0.2-1.8,0.5s-0.9,0.8-1.2,1.5s-0.4,1.4-0.4,2.2c0,0.7,0.1,1.3,0.3,1.8s0.6,1,1.1,1.3s1.1,0.5,1.8,0.5s1.3-0.2,1.8-0.5
		s0.9-0.8,1.2-1.5s0.4-1.4,0.4-2.2c0-0.7-0.1-1.3-0.3-1.8s-0.5-1-1-1.3C145.5,99.9,144.9,99.7,144.2,99.7z"/>
	<path fill="#FFFFFF" d="M168.2,106.8c0,0.3-0.1,0.7-0.2,1.1c-0.1,0.4-0.2,0.9-0.2,1.5c-1.1,0.3-2.2,0.4-3.3,0.4
		c-0.6,0-1.3-0.1-1.8-0.2s-1.1-0.3-1.6-0.6c-0.5-0.3-1-0.7-1.3-1.2c-0.4-0.5-0.7-1.1-0.9-1.8c-0.2-0.7-0.3-1.4-0.3-2.2
		c0-1,0.2-1.9,0.5-2.9c0.3-0.9,0.8-1.7,1.4-2.2c0.6-0.6,1.3-1,2.1-1.2s1.6-0.3,2.5-0.3c0.5,0,1,0,1.6,0.1c0.5,0.1,1.2,0.2,1.9,0.4
		l0.2,2.6c-1.2-0.4-2.2-0.6-3.1-0.6c-0.5,0-1,0.1-1.5,0.3c-0.5,0.2-0.9,0.5-1.2,0.9s-0.6,0.8-0.7,1.4c-0.1,0.5-0.2,1-0.2,1.6
		c0,0.7,0.1,1.4,0.3,1.9s0.6,1,1.2,1.3c0.6,0.3,1.2,0.4,1.9,0.4c0.4,0,0.8,0,1.3-0.1S167.6,107.1,168.2,106.8z"/>
	<path fill="#FFFFFF" d="M177.1,97.3c0.9,0,1.8,0.1,2.6,0.4s1.5,0.7,2.1,1.2s1,1.2,1.3,2s0.4,1.6,0.4,2.4c0,0.9-0.2,1.8-0.5,2.6
		c-0.3,0.8-0.8,1.6-1.3,2.2s-1.3,1.1-2.2,1.4s-1.8,0.5-2.8,0.5c-0.9,0-1.8-0.1-2.6-0.4s-1.5-0.7-2.1-1.2s-1-1.2-1.3-2
		s-0.5-1.6-0.5-2.4c0-0.9,0.1-1.7,0.4-2.5c0.3-0.8,0.7-1.5,1.3-2.1s1.3-1.1,2.3-1.4C175.2,97.4,176.1,97.3,177.1,97.3z M177.1,99.7
		c-0.7,0-1.3,0.2-1.8,0.5s-0.9,0.8-1.2,1.5s-0.4,1.4-0.4,2.2c0,0.7,0.1,1.3,0.3,1.8s0.6,1,1.1,1.3s1.1,0.5,1.8,0.5s1.3-0.2,1.8-0.5
		s0.9-0.8,1.2-1.5s0.4-1.4,0.4-2.2c0-0.7-0.1-1.3-0.3-1.8s-0.5-1-1-1.3C178.4,99.9,177.8,99.7,177.1,99.7z"/>
	<path fill="#FFFFFF" d="M185.6,109.6l0.3-5.6l0.1-3.3c0-0.7,0-1.3,0-2c0-0.1,0-0.5,0-1.1c0.7,0,1.3,0,1.6,0c0.4,0,0.9,0,1.6,0
		l-0.1,1.7c0.3-0.4,0.6-0.7,0.8-1s0.5-0.4,0.7-0.5s0.6-0.3,0.9-0.3s0.7-0.1,1-0.1s0.6,0,1,0.1c0,0.7,0,1.7,0.1,2.8
		c-0.5-0.1-0.9-0.2-1.3-0.2c-0.5,0-0.9,0.1-1.2,0.2c-0.4,0.1-0.7,0.3-0.9,0.6c-0.3,0.3-0.5,0.6-0.7,1c-0.1,0.3-0.3,0.8-0.3,1.3
		c-0.1,0.4-0.1,1.1-0.2,2.1c0,1-0.1,2-0.1,2.9c0,0.4,0,0.8,0,1.4c-0.6,0-1.1,0-1.6,0C186.8,109.6,186.3,109.6,185.6,109.6z"/>
	<path fill="#FFFFFF" d="M194.7,115c0.2-2.2,0.4-5,0.5-8.6s0.2-6.3,0.2-8.5c1.5-0.3,2.7-0.4,3.5-0.5s1.6-0.1,2.4-0.1
		c1.1,0,2,0.1,2.9,0.4s1.6,0.7,2.1,1.3c0.5,0.6,0.9,1.3,1.2,2.1c0.3,0.8,0.4,1.6,0.4,2.4c0,0.9-0.1,1.7-0.4,2.5
		c-0.2,0.8-0.6,1.5-1.1,2.1s-1.1,1.1-1.8,1.4s-1.4,0.4-2.2,0.4c-0.5,0-0.9-0.1-1.4-0.2s-0.9-0.3-1.2-0.4c-0.3-0.2-0.6-0.4-0.8-0.5
		s-0.5-0.5-0.8-0.8l-0.2,5.1v0.8c0,0.1,0,0.5,0,1.2c-0.7,0-1.3,0-1.7,0L194.7,115z M198.7,100.1c-0.1,0.4-0.1,0.8-0.1,1.1l-0.1,1.3
		c0,0.6,0,1,0,1.3c0,0.5,0,0.9,0.1,1.4c0.1,0.4,0.3,0.8,0.6,1.2c0.3,0.4,0.6,0.7,1.1,0.8c0.4,0.2,0.8,0.3,1.3,0.3
		c0.6,0,1.1-0.2,1.6-0.5s0.9-0.8,1.1-1.5c0.3-0.7,0.4-1.4,0.4-2.1c0-0.8-0.1-1.5-0.4-2.1c-0.3-0.6-0.7-1-1.2-1.2s-1.1-0.4-1.7-0.4
		C200.6,99.6,199.7,99.8,198.7,100.1z"/>
	<path fill="#FFFFFF" d="M216.5,97.3c0.9,0,1.8,0.1,2.6,0.4s1.5,0.7,2.1,1.2s1,1.2,1.3,2s0.4,1.6,0.4,2.4c0,0.9-0.2,1.8-0.5,2.6
		c-0.3,0.8-0.8,1.6-1.3,2.2s-1.3,1.1-2.2,1.4s-1.8,0.5-2.8,0.5c-0.9,0-1.8-0.1-2.6-0.4s-1.5-0.7-2.1-1.2s-1-1.2-1.3-2
		s-0.5-1.6-0.5-2.4c0-0.9,0.1-1.7,0.4-2.5c0.3-0.8,0.7-1.5,1.3-2.1s1.3-1.1,2.3-1.4C214.6,97.4,215.5,97.3,216.5,97.3z M216.5,99.7
		c-0.7,0-1.3,0.2-1.8,0.5s-0.9,0.8-1.2,1.5s-0.4,1.4-0.4,2.2c0,0.7,0.1,1.3,0.3,1.8s0.6,1,1.1,1.3s1.1,0.5,1.8,0.5s1.3-0.2,1.8-0.5
		s0.9-0.8,1.2-1.5s0.4-1.4,0.4-2.2c0-0.7-0.1-1.3-0.3-1.8s-0.5-1-1-1.3C217.8,99.9,217.2,99.7,216.5,99.7z"/>
	<path fill="#FFFFFF" d="M225,109.6l0.3-5.6l0.1-3.3c0-0.7,0-1.3,0-2c0-0.1,0-0.5,0-1.1c0.7,0,1.3,0,1.6,0c0.4,0,0.9,0,1.6,0
		l-0.1,1.7c0.3-0.4,0.6-0.7,0.8-1s0.5-0.4,0.7-0.5s0.6-0.3,0.9-0.3s0.7-0.1,1-0.1s0.6,0,1,0.1c0,0.7,0,1.7,0.1,2.8
		c-0.5-0.1-0.9-0.2-1.3-0.2c-0.5,0-0.9,0.1-1.2,0.2c-0.4,0.1-0.7,0.3-0.9,0.6c-0.3,0.3-0.5,0.6-0.7,1c-0.1,0.3-0.3,0.8-0.3,1.3
		c-0.1,0.4-0.1,1.1-0.2,2.1c0,1-0.1,2-0.1,2.9c0,0.4,0,0.8,0,1.4c-0.6,0-1.1,0-1.6,0C226.3,109.6,225.7,109.6,225,109.6z"/>
	<path fill="#FFFFFF" d="M235.3,100.2c0.1-0.6,0.2-1,0.2-1.2s0.1-0.6,0.1-1c1.1-0.3,2-0.4,2.8-0.5s1.6-0.2,2.4-0.2
		c0.9,0,1.7,0.1,2.4,0.3c0.7,0.2,1.3,0.5,1.7,1c0.4,0.4,0.6,1.1,0.6,1.9c0,0.5-0.1,1.6-0.2,3.4c-0.1,1.8-0.2,3.7-0.2,5.7
		c-0.6,0-1.2,0-1.7,0s-1,0-1.7,0c0.1-1,0.2-2.1,0.3-3.3l0.2-2.9c-0.3,0.2-0.5,0.3-0.7,0.4s-0.3,0.2-0.5,0.2c-0.2,0.1-0.5,0.2-1,0.3
		c-0.5,0.1-0.9,0.3-1.2,0.4s-0.6,0.2-0.8,0.3s-0.4,0.3-0.6,0.4c-0.2,0.2-0.3,0.3-0.4,0.5s-0.1,0.4-0.1,0.6c0,0.3,0.1,0.6,0.3,0.9
		c0.2,0.2,0.4,0.4,0.7,0.5s0.6,0.1,1,0.1c0.3,0,0.5,0,0.8-0.1s0.7-0.1,1.1-0.3c-0.2,0.4-0.4,1.1-0.6,2c-0.6,0.1-1,0.2-1.3,0.2
		s-0.6,0-0.9,0c-1,0-1.8-0.1-2.4-0.4c-0.6-0.3-1.1-0.7-1.4-1.3c-0.3-0.6-0.5-1.2-0.5-1.8c0-0.3,0.1-0.7,0.2-1
		c0.1-0.3,0.3-0.6,0.5-0.9s0.5-0.5,0.9-0.8s0.9-0.5,1.6-0.7c0.7-0.2,1.6-0.5,2.7-0.7c0.3-0.1,0.6-0.1,0.9-0.2
		c0.3-0.1,0.6-0.2,0.8-0.3s0.4-0.2,0.5-0.3c0.1-0.1,0.2-0.3,0.3-0.4s0.1-0.3,0.1-0.5c0-0.3-0.1-0.6-0.3-0.8s-0.5-0.4-0.8-0.4
		c-0.3-0.1-0.7-0.1-1.1-0.1C238.6,99.2,237.1,99.5,235.3,100.2z"/>
	<path fill="#FFFFFF" d="M255.5,107.1c-0.1,0.4-0.2,1.2-0.4,2.4c-0.7,0.1-1.2,0.2-1.6,0.3c-0.4,0-0.7,0.1-1.1,0.1
		c-0.6,0-1.1-0.1-1.6-0.2s-0.8-0.3-1.1-0.6s-0.5-0.6-0.6-1s-0.2-0.8-0.2-1.2c0-0.1,0-0.2,0-0.4s0-0.7,0.1-1.7l0.3-4.9h-1.7
		c0-0.5,0.1-1.2,0.1-2.3h1.8c0-0.5,0.1-1.2,0.1-2.3L251,95c0.3-0.1,0.9-0.2,1.7-0.4c-0.1,1.1-0.1,2.1-0.1,3h3
		c-0.1,1.1-0.1,1.8-0.1,2.3h-3c-0.2,3.2-0.2,5.1-0.2,5.6s0.1,0.9,0.2,1.1c0.1,0.3,0.3,0.5,0.5,0.6s0.5,0.2,0.8,0.2
		c0.2,0,0.4,0,0.6,0C254.6,107.3,255,107.2,255.5,107.1z"/>
	<path fill="#FFFFFF" d="M257.1,109.6c0.1-1.2,0.2-2.2,0.3-3c0.1-1.3,0.2-2.7,0.2-4.4c0.1-1.6,0.1-3.2,0.1-4.7c0.8,0,1.3,0,1.7,0
		c0.4,0,0.9,0,1.7,0c-0.1,1.4-0.2,2.7-0.3,3.9c-0.1,1.2-0.1,2.7-0.1,4.3s0,2.9,0,3.8c-0.7,0-1.3,0-1.7,0
		C258.6,109.6,258,109.6,257.1,109.6z M257.8,95.5c0-0.8,0-1.4,0-1.9v-0.4c0.7,0,1.3,0,1.8,0c0.6,0,1.2,0,1.7,0c0,0.2,0,0.4,0,0.7
		l-0.1,1.6c-0.6,0-1.2,0-1.7,0C259,95.5,258.5,95.5,257.8,95.5z"/>
	<path fill="#FFFFFF" d="M266.8,109.6c-0.5-1.7-1.9-5.7-4.2-12c0.7,0,1.3,0,1.8,0s1.1,0,1.6,0l2.8,9l0.4-1l2.7-6.8
		c0.1-0.3,0.3-0.7,0.5-1.2c0.6,0,1.2,0,1.7,0s1.1,0,1.7,0l-1.9,4.2l-2.8,6.3l-0.6,1.5c-0.7,0-1.3,0-1.8,0
		C268.2,109.6,267.6,109.6,266.8,109.6z"/>
	<path fill="#FFFFFF" d="M277.6,100.2c0.1-0.6,0.2-1,0.2-1.2s0.1-0.6,0.1-1c1.1-0.3,2-0.4,2.8-0.5s1.6-0.2,2.4-0.2
		c0.9,0,1.7,0.1,2.4,0.3c0.7,0.2,1.3,0.5,1.7,1c0.4,0.4,0.6,1.1,0.6,1.9c0,0.5-0.1,1.6-0.2,3.4s-0.2,3.7-0.2,5.7c-0.6,0-1.2,0-1.7,0
		s-1,0-1.7,0c0.1-1,0.2-2.1,0.3-3.3l0.2-2.9c-0.3,0.2-0.5,0.3-0.7,0.4s-0.3,0.2-0.5,0.2c-0.2,0.1-0.5,0.2-1,0.3
		c-0.5,0.1-0.9,0.3-1.2,0.4s-0.6,0.2-0.8,0.3s-0.4,0.3-0.6,0.4c-0.2,0.2-0.3,0.3-0.4,0.5s-0.1,0.4-0.1,0.6c0,0.3,0.1,0.6,0.3,0.9
		c0.2,0.2,0.4,0.4,0.7,0.5c0.3,0.1,0.6,0.1,1,0.1c0.3,0,0.5,0,0.8-0.1s0.7-0.1,1.1-0.3c-0.2,0.4-0.4,1.1-0.6,2
		c-0.6,0.1-1,0.2-1.3,0.2s-0.6,0-0.9,0c-1,0-1.8-0.1-2.4-0.4s-1.1-0.7-1.4-1.3c-0.3-0.6-0.5-1.2-0.5-1.8c0-0.3,0.1-0.7,0.2-1
		s0.3-0.6,0.5-0.9s0.5-0.5,0.9-0.8s0.9-0.5,1.6-0.7s1.6-0.5,2.7-0.7c0.3-0.1,0.6-0.1,0.9-0.2s0.6-0.2,0.8-0.3s0.4-0.2,0.5-0.3
		c0.1-0.1,0.2-0.3,0.3-0.4c0.1-0.1,0.1-0.3,0.1-0.5c0-0.3-0.1-0.6-0.3-0.8s-0.5-0.4-0.8-0.4c-0.3-0.1-0.7-0.1-1.1-0.1
		C280.9,99.2,279.3,99.5,277.6,100.2z"/>
</g>
</svg>
