<?xml version="1.0" encoding="utf-8"?>
<!-- Generator: Adobe Illustrator 22.0.1, SVG Export Plug-In . SVG Version: 6.00 Build 0)  -->
<svg version="1.1" baseProfile="tiny" id="Camada_1"
	 xmlns="http://www.w3.org/2000/svg" xmlns:xlink="http://www.w3.org/1999/xlink" x="0px" y="0px" viewBox="0 0 414.4 414.4"
	 xml:space="preserve">
<circle fill="#CD2921" cx="207.2" cy="207.2" r="207.2"/>
<g>
	<g>
		<path fill="#FFFFFF" d="M237.9,175.3c2.7-0.5,5.4-1.5,8.1-1.8c3.6-0.4,5.5-2,6.6-5.6c2.5-8.3,2.7-8.2-5.8-8c-1.2,0-2.4,0.1-3.7,0
			c-3.7-0.3-5.8,1.3-6.7,4.9c-0.5,2.3-1.3,4.5-2,6.7C233.5,174.9,234.4,176,237.9,175.3z"/>
		<path fill="#FFFFFF" d="M350,216.4c-8.4-1.8-11.8,0.1-14.2,8.4c-0.2,0.6-0.4,1.3-0.6,1.9c-0.6,1.8,0.2,2.5,1.8,2.7
			c0.1,0,2.1-0.3,3-0.5c2.7-0.6,5.5-1.3,8.3-1.9c0.7-0.2,1.1-0.7,1.3-1.4c0.7-2.2,1.5-4.4,2.2-6.6
			C352.1,217.4,351.5,216.8,350,216.4z"/>
		<path fill="#FFFFFF" d="M337.3,212.3c0.8-2.8-0.7-4.8-2.6-6.3c-1.9-1.6-2.9,0.6-4.1,1.6c-2.4,2-4.5,4.3-7,6.1
			c-4.6,3.4-10.3,3.1-13.4-0.4c-2.9-3.3-2.7-4.4,1.4-5.9c6.2-2.3,12.3-4.8,16.7-10c6.5-7.7,3.1-17.8-6.6-19.8
			c-2.5-0.5-5.1-0.5-7.6,0.2c-13.3,3.6-20.5,13.1-23,25.9c-1.1,5.8-4.4,8.4-8.7,10.7c-5.2,2.8-10.6,1.4-13.2-3.1
			c-3.6-6.2-1.4-19.4,4.1-24c0.8-0.7,1.8-1.6,3-1c1.1,0.5,1.4,1.7,1.3,2.9c-0.1,2-0.5,4-0.5,6c0,2.3,1.3,4,3.5,3.2
			c3.6-1.3,7.3-2.8,10.4-5.1c0.9-0.7,1.4-1.7,1.5-2.9c0.5-4.3-0.8-7.9-4.3-10.6c-4.1-3.1-8.8-3.2-13.4-2
			c-11.1,2.7-22.1,15.3-23.6,27.3c-0.4,3.6-2.4,5.6-4.9,7.5c-0.9,0.7-1.9,1.5-3,0.8c-0.9-0.6-0.5-1.9-0.5-2.8
			c0.1-1.4,0.3-2.9,0.6-4.3c1.9-8.4,4.9-16.4,7.5-24.6c1.1-3.6,0-4.9-3.6-4.2c-3.8,0.8-7.6,1.8-11.4,2.4c-1.9,0.3-2.9,1.3-3.5,3
			c-2.7,7.5-5.3,15.1-6.6,23.1c-0.4,2.5-1.8,3.7-3.7,4.7c-1.5,0.8-3.2,1.1-4.4,0c-0.7-0.6-0.6-1.2-0.2-1.8c0.4-0.5,1.7-2.8,2-3.4
			c3.4-7,6.1-14.1,5.5-22.1c-0.3-5-3.8-7.3-8.6-5.7c-3.2,1.1-5.5,3.3-7.4,6c-5.2,7.7-6.4,16-3.4,24.8c0.6,1.8,0.6,3.2-0.8,4.5
			c-1.2,1.1-2.3,2.5-3.6,3.5c-1.4,1.1-3.1,2-4.9,1c-1.8-1.1-2.3-3-2-5c0.3-2.4,0.7-4.8,1.3-7.2c1.9-8.2,5.1-16.1,7.7-24.1
			c1-3.2,0.2-4.4-3-3.8c-4.3,0.7-8.5,1.6-12.8,2.4c-1.5,0.3-2.4,0.9-2.9,2.4c-2.5,7.5-5.6,14.8-6.6,22.7c-0.5,3.4-2.2,5.7-4.7,7.6
			c-1.1,0.8-2.3,2.4-3.7,1.7c-0.7-0.3-1-0.9-1-1.5c-0.1-0.8,1.6-13,2.9-18.2c3.4-14.6,6.9-29.2,10.4-43.8c1-4.1-0.5-5.7-4.7-5
			c-2.9,0.5-5.7,1.2-8.5,1.5c-3.1,0.3-4.5,1.8-5.2,4.9c-1.7,8.2-3.8,16.2-5.7,24.4c-0.3,1.5-0.5,2.5-2.5,1.5
			c-3.2-1.4-6.6-1.3-9.8-0.3c-13.4,4.2-20.8,14-24.2,27c-1.2,4.5-4.2,6.8-7.5,9.2c-1.7,1.3-2.7,0.3-2.9-1.5
			c-0.1-0.9,0.1-1.8,0.2-2.6c1.6-9.9,5.3-19.3,7.9-28.9c0.8-3,0.2-3.8-3-3.6c-3.5,0.2-6.3,2-9.2,3.7c-1.7,1-3,1.5-4.5-0.5
			c-1.7-2.2-4.2-3.1-7-3.4c-6.7-0.7-12.2,2.3-17.2,6.1C67.2,191.6,61,202.1,63,216c1.5,10.5,10.4,15.9,19.3,12
			c3.5-1.5,6.1-4,8.7-6.7c0.9-0.9,1.5-2.2,3-2.6c0.3,1.1,0.6,2,0.9,3c2.1,6.7,6.8,9,13.4,6.8c4.2-1.5,7.4-4.4,10.6-7.3
			c1.7-1.6,2.3-1.5,3.5,0.6c4.4,7.7,11,9.5,18.9,5.4c3.8-2,6.8-5,10.1-8.5c0.5,1.5,0.8,2.6,1.2,3.6c2.4,6.2,7.5,8.5,13.6,6
			c3.8-1.5,6.8-4.2,9.8-6.9c1.6-1.5,2-1.2,3,0.6c3,5.8,8.3,8.1,14.8,7.1c6.6-1,11.8-4.4,16.2-9.2c1.5-1.6,2.6-2.4,4.7-1.1
			c2.2,1.3,4.9,1.5,7.1,0.8c2.8-0.9,3.4,0.1,4.3,2.4c2.6,7.2,8.1,9.1,14.9,5.6c3.4-1.7,6.3-4.1,9.1-6.8c1.4-1.4,2.2-1.5,3.5,0.4
			c4.4,6.6,10.8,8.8,18.5,7.8c6.9-0.9,12.6-4.2,17.7-8.7c1.3-1.1,2-1.5,3.3,0.3c5.3,7.7,13.2,10.4,22.1,7.8
			c8.3-2.4,14.6-7.8,20.6-13.7C336.5,214.1,337,213.2,337.3,212.3z M98.1,193.8c-2.2,8.2-6.1,15.4-11.7,21.8c-0.9,1.1-2,2.1-3.2,3
			c-3.6,2.6-6.4,1.3-6.9-3.1c-0.1-0.7,0-1.3,0-2c1.1-10.3,4.8-19.5,11.9-27.2c1.1-1.1,2.4-2,3.9-2.5c3.3-1,5.7,0.4,6.5,3.7
			C99.1,189.7,98.7,191.8,98.1,193.8z M155.7,190.6c-1.6,10.6-6.3,19.6-13.8,27.1c-1.4,1.4-3.1,2.7-5.3,2c-1.2-0.4-2.3-1.8-2.5-4
			c-0.2-3.6,0.6-6.6,1.1-8.5c1.9-7.4,4.6-14.9,10.3-21.2c2-2.1,4.4-3.6,7.4-2.2C155.9,185.1,156.1,187.9,155.7,190.6z M304.9,201.8
			c0.4-3.1,1.9-6.7,4.1-9.6c2-2.8,4.6-5,7.3-5.9c4.1-1.3,6.9,1.1,6.2,5.4c-0.4,2.5-1.9,4.3-3.6,5.9c-3.4,3.1-7.5,4.7-11.9,5.8
			C305.6,203.7,304.7,203.6,304.9,201.8z"/>
	</g>
	<path fill="#FFFFFF" d="M73.1,252.3c0,0.3-0.1,0.7-0.2,1.1c-0.1,0.4-0.2,0.9-0.2,1.5c-1.1,0.3-2.2,0.4-3.3,0.4
		c-0.6,0-1.3-0.1-1.8-0.2c-0.5-0.1-1.1-0.3-1.6-0.6s-1-0.7-1.3-1.2c-0.4-0.5-0.7-1.1-0.9-1.8s-0.3-1.4-0.3-2.2c0-1,0.2-1.9,0.5-2.9
		c0.3-0.9,0.8-1.7,1.4-2.2c0.6-0.6,1.3-1,2.1-1.2c0.8-0.2,1.6-0.3,2.5-0.3c0.5,0,1,0,1.6,0.1c0.5,0.1,1.2,0.2,1.9,0.4l0.2,2.6
		c-1.2-0.4-2.2-0.6-3.1-0.6c-0.5,0-1,0.1-1.5,0.3s-0.9,0.5-1.2,0.9c-0.3,0.4-0.6,0.8-0.7,1.4c-0.1,0.5-0.2,1-0.2,1.6
		c0,0.7,0.1,1.4,0.3,1.9c0.2,0.5,0.6,1,1.2,1.3s1.2,0.4,1.9,0.4c0.4,0,0.8,0,1.3-0.1C72.2,252.8,72.5,252.6,73.1,252.3z"/>
	<path fill="#FFFFFF" d="M82,242.8c0.9,0,1.8,0.1,2.6,0.4c0.8,0.3,1.5,0.7,2.1,1.2s1,1.2,1.3,2s0.4,1.6,0.4,2.4
		c0,0.9-0.2,1.8-0.5,2.6s-0.8,1.6-1.3,2.2c-0.5,0.6-1.3,1.1-2.2,1.4s-1.8,0.5-2.8,0.5c-0.9,0-1.8-0.1-2.6-0.4
		c-0.8-0.3-1.5-0.7-2.1-1.2s-1-1.2-1.3-2s-0.5-1.6-0.5-2.4c0-0.9,0.1-1.7,0.4-2.5s0.7-1.5,1.3-2.1c0.6-0.6,1.3-1.1,2.3-1.4
		C80.1,242.9,81,242.8,82,242.8z M82,245.2c-0.7,0-1.3,0.2-1.8,0.5s-0.9,0.8-1.2,1.5c-0.3,0.7-0.4,1.4-0.4,2.2
		c0,0.7,0.1,1.3,0.3,1.8s0.6,1,1.1,1.3s1.1,0.5,1.8,0.5c0.7,0,1.3-0.2,1.8-0.5s0.9-0.8,1.2-1.5c0.3-0.7,0.4-1.4,0.4-2.2
		c0-0.7-0.1-1.3-0.3-1.8c-0.2-0.5-0.5-1-1-1.3C83.3,245.4,82.7,245.2,82,245.2z"/>
	<path fill="#FFFFFF" d="M90.5,255.1c0.1-1.3,0.2-3.3,0.3-6s0.2-4.7,0.2-6c0.7,0,1.2,0,1.6,0c0.5,0,1,0,1.6,0l-0.1,1.9
		c0.3-0.4,0.5-0.7,0.7-0.9s0.5-0.4,0.8-0.6c0.3-0.2,0.7-0.4,1.2-0.5c0.4-0.1,0.9-0.2,1.4-0.2c0.4,0,0.7,0,1,0.1s0.6,0.2,0.9,0.3
		s0.5,0.3,0.7,0.4c0.2,0.2,0.4,0.3,0.5,0.5s0.3,0.5,0.4,0.9c0.2-0.3,0.3-0.5,0.5-0.7c0.1-0.2,0.3-0.4,0.6-0.6
		c0.2-0.2,0.5-0.4,0.8-0.5s0.6-0.2,1-0.3s0.8-0.1,1.2-0.1c0.7,0,1.3,0.1,1.9,0.3s1.1,0.6,1.4,1.1s0.5,1.1,0.5,1.8
		c0,0.4,0,0.9-0.1,1.7c-0.1,0.7-0.1,1.9-0.2,3.6s-0.1,2.9-0.1,3.8c-0.6,0-1.1,0-1.5,0c-0.5,0-1.1,0-1.8,0c0.1-1,0.1-2.1,0.2-3.2
		l0.1-2.7c0-0.7,0.1-1.3,0.1-1.7c0-0.6-0.1-1-0.3-1.3c-0.2-0.3-0.4-0.5-0.7-0.6c-0.3-0.1-0.6-0.2-0.9-0.2c-0.4,0-0.7,0.1-1,0.2
		c-0.3,0.1-0.6,0.4-0.8,0.7c-0.2,0.3-0.4,0.7-0.6,1.1c-0.1,0.4-0.2,1-0.3,1.7s-0.1,1.7-0.2,2.8l-0.1,3.3c-0.7,0-1.2,0-1.6,0
		s-1,0-1.7,0c0.1-0.6,0.1-1.8,0.2-3.7s0.2-3.1,0.2-3.8c0-0.3,0-0.6-0.1-0.9c-0.1-0.2-0.2-0.5-0.3-0.7s-0.4-0.4-0.6-0.5
		s-0.5-0.2-0.8-0.2c-0.6,0-1,0.2-1.5,0.5c-0.4,0.4-0.7,0.8-0.9,1.5c-0.2,0.6-0.3,1.8-0.4,3.5c-0.1,1.8-0.1,3.1-0.1,4.2
		c-0.7,0-1.3,0-1.6,0C91.8,255.1,91.2,255.1,90.5,255.1z"/>
	<path fill="#FFFFFF" d="M124.3,255.1c-0.7,0-1.2,0-1.6,0c-0.5,0-1,0-1.6,0v-2c-0.2,0.3-0.4,0.6-0.6,0.8s-0.4,0.4-0.7,0.6
		c-0.3,0.2-0.6,0.3-0.9,0.5c-0.3,0.1-0.7,0.2-1.1,0.3s-0.8,0.1-1.3,0.1c-0.9,0-1.7-0.1-2.3-0.4c-0.7-0.3-1.2-0.6-1.6-1.2
		c-0.4-0.6-0.6-1.3-0.6-2.2v-0.2l0.2-3.1l0.2-4c0-0.3,0-0.7,0-1.2c0.7,0,1.3,0,1.8,0c0.4,0,1,0,1.6,0l-0.4,5.4c0,0.4,0,0.8-0.1,1.1
		c0,0.3,0,0.5,0,0.6c0,0.6,0.1,1,0.3,1.4c0.2,0.4,0.5,0.7,0.9,0.9s0.9,0.3,1.4,0.3s0.9-0.1,1.3-0.3s0.7-0.4,1-0.7s0.5-0.7,0.7-1.1
		c0.1-0.3,0.2-0.8,0.3-1.4c0.1-0.4,0.1-1.2,0.2-2.2c0.1-1.3,0.1-2.6,0.1-3.9c0.8,0,1.4,0,1.8,0c0.5,0,1,0,1.6,0
		c-0.1,1.1-0.2,2.5-0.3,4.2s-0.2,3.1-0.2,4.2C124.4,252.6,124.4,253.8,124.3,255.1z"/>
	<path fill="#FFFFFF" d="M127.2,255.1c0.2-1.8,0.3-3.8,0.5-6c0.1-2.2,0.2-4.2,0.2-6c0.7,0,1.3,0,1.7,0c0.5,0,1.1,0,1.6,0l-0.1,2
		c0.2-0.3,0.5-0.6,0.6-0.8c0.2-0.2,0.4-0.4,0.7-0.6c0.3-0.2,0.6-0.4,0.9-0.5c0.3-0.1,0.7-0.2,1.1-0.3c0.4-0.1,0.8-0.1,1.3-0.1
		c0.7,0,1.4,0.1,2,0.3s1.2,0.5,1.6,0.8c0.4,0.4,0.7,0.8,0.8,1.3s0.2,0.9,0.2,1.5c0,0.2,0,0.6,0,1l-0.2,5.2c0,0.7-0.1,1.5-0.1,2.3
		c-0.6,0-1.2,0-1.6,0c-0.6,0-1.2,0-1.8,0c0.1-0.7,0.1-1.9,0.2-3.6c0.1-1.7,0.1-2.8,0.1-3.4c0-0.6-0.1-1.1-0.3-1.5s-0.5-0.7-0.9-0.9
		s-0.9-0.3-1.3-0.3c-0.5,0-0.9,0.1-1.3,0.3c-0.4,0.2-0.8,0.4-1.1,0.8c-0.3,0.4-0.6,0.8-0.7,1.3c-0.2,0.6-0.3,1.5-0.4,2.7
		c-0.1,1.1-0.1,2.6-0.2,4.5c-0.6,0-1.2,0-1.6,0C128.5,255.1,127.9,255.1,127.2,255.1z"/>
	<path fill="#FFFFFF" d="M142.8,255.1c0.1-1.2,0.2-2.2,0.3-3c0.1-1.3,0.2-2.7,0.2-4.4c0.1-1.6,0.1-3.2,0.1-4.7c0.8,0,1.3,0,1.7,0
		s0.9,0,1.7,0c-0.1,1.4-0.2,2.7-0.3,3.9s-0.1,2.7-0.1,4.3s0,2.9,0,3.8c-0.7,0-1.3,0-1.7,0C144.2,255.1,143.6,255.1,142.8,255.1z
		 M143.4,241c0-0.8,0-1.4,0-1.9v-0.4c0.7,0,1.3,0,1.8,0c0.6,0,1.2,0,1.7,0c0,0.2,0,0.4,0,0.7l-0.1,1.6c-0.6,0-1.2,0-1.7,0
		C144.7,241,144.1,241,143.4,241z"/>
	<path fill="#FFFFFF" d="M158.7,252.3c0,0.3-0.1,0.7-0.2,1.1c-0.1,0.4-0.2,0.9-0.2,1.5c-1.1,0.3-2.2,0.4-3.3,0.4
		c-0.6,0-1.3-0.1-1.8-0.2c-0.5-0.1-1.1-0.3-1.6-0.6s-1-0.7-1.3-1.2c-0.4-0.5-0.7-1.1-0.9-1.8s-0.3-1.4-0.3-2.2c0-1,0.2-1.9,0.5-2.9
		c0.3-0.9,0.8-1.7,1.4-2.2c0.6-0.6,1.3-1,2.1-1.2s1.6-0.3,2.5-0.3c0.5,0,1,0,1.6,0.1c0.5,0.1,1.2,0.2,1.9,0.4l0.2,2.6
		c-1.2-0.4-2.2-0.6-3.1-0.6c-0.5,0-1,0.1-1.5,0.3s-0.9,0.5-1.2,0.9s-0.6,0.8-0.7,1.4c-0.1,0.5-0.2,1-0.2,1.6c0,0.7,0.1,1.4,0.3,1.9
		s0.6,1,1.2,1.3c0.6,0.3,1.2,0.4,1.9,0.4c0.4,0,0.8,0,1.3-0.1C157.8,252.8,158.1,252.6,158.7,252.3z"/>
	<path fill="#FFFFFF" d="M162,245.7c0.1-0.6,0.2-1,0.2-1.2s0.1-0.6,0.1-1c1.1-0.3,2-0.4,2.8-0.5s1.6-0.2,2.4-0.2
		c0.9,0,1.7,0.1,2.4,0.3s1.3,0.5,1.7,1c0.4,0.4,0.6,1.1,0.6,1.9c0,0.5-0.1,1.6-0.2,3.4c-0.1,1.8-0.2,3.7-0.2,5.7c-0.6,0-1.2,0-1.7,0
		s-1,0-1.7,0c0.1-1,0.2-2.1,0.3-3.3l0.2-2.9c-0.3,0.2-0.5,0.3-0.7,0.4c-0.2,0.1-0.3,0.2-0.5,0.2c-0.2,0.1-0.5,0.2-1,0.3
		s-0.9,0.3-1.2,0.4c-0.3,0.1-0.6,0.2-0.8,0.3s-0.4,0.3-0.6,0.4c-0.2,0.2-0.3,0.3-0.4,0.5c-0.1,0.2-0.1,0.4-0.1,0.6
		c0,0.3,0.1,0.6,0.3,0.9c0.2,0.2,0.4,0.4,0.7,0.5s0.6,0.1,1,0.1c0.3,0,0.5,0,0.8-0.1s0.7-0.1,1.1-0.3c-0.2,0.4-0.4,1.1-0.6,2
		c-0.6,0.1-1,0.2-1.3,0.2s-0.6,0-0.9,0c-1,0-1.8-0.1-2.4-0.4c-0.6-0.3-1.1-0.7-1.4-1.3s-0.5-1.2-0.5-1.8c0-0.3,0.1-0.7,0.2-1
		c0.1-0.3,0.3-0.6,0.5-0.9s0.5-0.5,0.9-0.8s0.9-0.5,1.6-0.7s1.6-0.5,2.7-0.7c0.3-0.1,0.6-0.1,0.9-0.2c0.3-0.1,0.6-0.2,0.8-0.3
		s0.4-0.2,0.5-0.3s0.2-0.3,0.3-0.4c0.1-0.1,0.1-0.3,0.1-0.5c0-0.3-0.1-0.6-0.3-0.8s-0.5-0.4-0.8-0.4c-0.3-0.1-0.7-0.1-1.1-0.1
		C165.3,244.7,163.7,245,162,245.7z"/>
	<path fill="#FFFFFF" d="M184.2,252.3c0,0.3-0.1,0.7-0.2,1.1c-0.1,0.4-0.2,0.9-0.2,1.5c-1.1,0.3-2.2,0.4-3.3,0.4
		c-0.6,0-1.3-0.1-1.8-0.2c-0.5-0.1-1.1-0.3-1.6-0.6s-1-0.7-1.3-1.2c-0.4-0.5-0.7-1.1-0.9-1.8s-0.3-1.4-0.3-2.2c0-1,0.2-1.9,0.5-2.9
		c0.3-0.9,0.8-1.7,1.4-2.2c0.6-0.6,1.3-1,2.1-1.2s1.6-0.3,2.5-0.3c0.5,0,1,0,1.6,0.1c0.5,0.1,1.2,0.2,1.9,0.4l0.2,2.6
		c-1.2-0.4-2.2-0.6-3.1-0.6c-0.5,0-1,0.1-1.5,0.3s-0.9,0.5-1.2,0.9s-0.6,0.8-0.7,1.4c-0.1,0.5-0.2,1-0.2,1.6c0,0.7,0.1,1.4,0.3,1.9
		s0.6,1,1.2,1.3c0.6,0.3,1.2,0.4,1.9,0.4c0.4,0,0.8,0,1.3-0.1C183.3,252.8,183.7,252.6,184.2,252.3z M181.7,256.1l-1.5,3
		c-0.6,0-1.2,0-1.7,0c-0.6,0-1.2,0-1.8,0c0.8-0.9,1.6-1.9,2.4-3.1c0.3,0.1,0.8,0.1,1.4,0.1C180.9,256.2,181.3,256.2,181.7,256.1z"/>
	<path fill="#FFFFFF" d="M187.5,245.7c0.1-0.6,0.2-1,0.2-1.2s0.1-0.6,0.1-1c1.1-0.3,2-0.4,2.8-0.5s1.6-0.2,2.4-0.2
		c0.9,0,1.7,0.1,2.4,0.3s1.3,0.5,1.7,1c0.4,0.4,0.6,1.1,0.6,1.9c0,0.5-0.1,1.6-0.2,3.4c-0.1,1.8-0.2,3.7-0.2,5.7c-0.6,0-1.2,0-1.7,0
		s-1,0-1.7,0c0.1-1,0.2-2.1,0.3-3.3l0.2-2.9c-0.3,0.2-0.5,0.3-0.7,0.4c-0.2,0.1-0.3,0.2-0.5,0.2c-0.2,0.1-0.5,0.2-1,0.3
		s-0.9,0.3-1.2,0.4c-0.3,0.1-0.6,0.2-0.8,0.3s-0.4,0.3-0.6,0.4c-0.2,0.2-0.3,0.3-0.4,0.5c-0.1,0.2-0.1,0.4-0.1,0.6
		c0,0.3,0.1,0.6,0.3,0.9c0.2,0.2,0.4,0.4,0.7,0.5s0.6,0.1,1,0.1c0.3,0,0.5,0,0.8-0.1s0.7-0.1,1.1-0.3c-0.2,0.4-0.4,1.1-0.6,2
		c-0.6,0.1-1,0.2-1.3,0.2s-0.6,0-0.9,0c-1,0-1.8-0.1-2.4-0.4c-0.6-0.3-1.1-0.7-1.4-1.3s-0.5-1.2-0.5-1.8c0-0.3,0.1-0.7,0.2-1
		c0.1-0.3,0.3-0.6,0.5-0.9s0.5-0.5,0.9-0.8s0.9-0.5,1.6-0.7s1.6-0.5,2.7-0.7c0.3-0.1,0.6-0.1,0.9-0.2c0.3-0.1,0.6-0.2,0.8-0.3
		s0.4-0.2,0.5-0.3s0.2-0.3,0.3-0.4c0.1-0.1,0.1-0.3,0.1-0.5c0-0.3-0.1-0.6-0.3-0.8s-0.5-0.4-0.8-0.4c-0.3-0.1-0.7-0.1-1.1-0.1
		C190.9,244.7,189.3,245,187.5,245.7z M189.6,241.2c0-0.6,0.1-1.1,0.2-1.5c0.1-0.4,0.3-0.7,0.5-0.9s0.5-0.3,0.8-0.3
		c0.1,0,0.2,0,0.3,0s0.2,0.1,0.3,0.1s0.2,0.1,0.3,0.1s0.2,0.1,0.5,0.3l0.6,0.4c0.1,0.1,0.3,0.2,0.4,0.2c0.1,0.1,0.3,0.1,0.4,0.1
		c0.1,0,0.2,0,0.3-0.1c0.1,0,0.2-0.1,0.2-0.2c0-0.1,0.1-0.2,0.1-0.3s0-0.3,0.1-0.5c0.3,0,0.6,0,0.7,0s0.4,0,0.8,0
		c0,0.5-0.1,1-0.2,1.4c-0.1,0.4-0.3,0.7-0.5,0.9s-0.6,0.4-1,0.4c-0.1,0-0.3,0-0.4-0.1c-0.1,0-0.3-0.1-0.5-0.2
		c-0.2-0.1-0.4-0.3-0.8-0.5c-0.4-0.3-0.7-0.4-0.8-0.5s-0.2-0.1-0.4-0.1c-0.1,0-0.3,0-0.3,0.1c-0.1,0.1-0.2,0.2-0.2,0.3
		s0,0.3-0.1,0.6c-0.3,0-0.6,0-0.7,0C190.1,241.2,189.9,241.2,189.6,241.2z"/>
	<path fill="#FFFFFF" d="M206.8,242.8c0.9,0,1.8,0.1,2.6,0.4s1.5,0.7,2.1,1.2s1,1.2,1.3,2s0.4,1.6,0.4,2.4c0,0.9-0.2,1.8-0.5,2.6
		s-0.8,1.6-1.3,2.2c-0.5,0.6-1.3,1.1-2.2,1.4s-1.8,0.5-2.8,0.5c-0.9,0-1.8-0.1-2.6-0.4s-1.5-0.7-2.1-1.2s-1-1.2-1.3-2
		s-0.5-1.6-0.5-2.4c0-0.9,0.1-1.7,0.4-2.5c0.3-0.8,0.7-1.5,1.3-2.1s1.3-1.1,2.3-1.4C204.9,242.9,205.9,242.8,206.8,242.8z
		 M206.8,245.2c-0.7,0-1.3,0.2-1.8,0.5s-0.9,0.8-1.2,1.5s-0.4,1.4-0.4,2.2c0,0.7,0.1,1.3,0.3,1.8s0.6,1,1.1,1.3s1.1,0.5,1.8,0.5
		s1.3-0.2,1.8-0.5s0.9-0.8,1.2-1.5s0.4-1.4,0.4-2.2c0-0.7-0.1-1.3-0.3-1.8s-0.5-1-1-1.3C208.1,245.4,207.5,245.2,206.8,245.2z"/>
	<path fill="#FFFFFF" d="M230.8,252.3c0,0.3-0.1,0.7-0.2,1.1c-0.1,0.4-0.2,0.9-0.2,1.5c-1.1,0.3-2.2,0.4-3.3,0.4
		c-0.6,0-1.3-0.1-1.8-0.2c-0.5-0.1-1.1-0.3-1.6-0.6s-1-0.7-1.3-1.2c-0.4-0.5-0.7-1.1-0.9-1.8s-0.3-1.4-0.3-2.2c0-1,0.2-1.9,0.5-2.9
		c0.3-0.9,0.8-1.7,1.4-2.2c0.6-0.6,1.3-1,2.1-1.2s1.6-0.3,2.5-0.3c0.5,0,1,0,1.6,0.1c0.5,0.1,1.2,0.2,1.9,0.4l0.2,2.6
		c-1.2-0.4-2.2-0.6-3.1-0.6c-0.5,0-1,0.1-1.5,0.3s-0.9,0.5-1.2,0.9s-0.6,0.8-0.7,1.4c-0.1,0.5-0.2,1-0.2,1.6c0,0.7,0.1,1.4,0.3,1.9
		s0.6,1,1.2,1.3c0.6,0.3,1.2,0.4,1.9,0.4c0.4,0,0.8,0,1.3-0.1C229.9,252.8,230.2,252.6,230.8,252.3z"/>
	<path fill="#FFFFFF" d="M239.7,242.8c0.9,0,1.8,0.1,2.6,0.4s1.5,0.7,2.1,1.2s1,1.2,1.3,2s0.4,1.6,0.4,2.4c0,0.9-0.2,1.8-0.5,2.6
		s-0.8,1.6-1.3,2.2c-0.5,0.6-1.3,1.1-2.2,1.4s-1.8,0.5-2.8,0.5c-0.9,0-1.8-0.1-2.6-0.4s-1.5-0.7-2.1-1.2s-1-1.2-1.3-2
		s-0.5-1.6-0.5-2.4c0-0.9,0.1-1.7,0.4-2.5c0.3-0.8,0.7-1.5,1.3-2.1s1.3-1.1,2.3-1.4C237.8,242.9,238.7,242.8,239.7,242.8z
		 M239.7,245.2c-0.7,0-1.3,0.2-1.8,0.5s-0.9,0.8-1.2,1.5s-0.4,1.4-0.4,2.2c0,0.7,0.1,1.3,0.3,1.8s0.6,1,1.1,1.3s1.1,0.5,1.8,0.5
		s1.3-0.2,1.8-0.5s0.9-0.8,1.2-1.5s0.4-1.4,0.4-2.2c0-0.7-0.1-1.3-0.3-1.8s-0.5-1-1-1.3C241,245.4,240.4,245.2,239.7,245.2z"/>
	<path fill="#FFFFFF" d="M248.2,255.1l0.3-5.6l0.1-3.3c0-0.7,0-1.3,0-2c0-0.1,0-0.5,0-1.1c0.7,0,1.3,0,1.6,0c0.4,0,0.9,0,1.6,0
		l-0.1,1.7c0.3-0.4,0.6-0.7,0.8-1s0.5-0.4,0.7-0.5s0.6-0.3,0.9-0.3s0.7-0.1,1-0.1s0.6,0,1,0.1c0,0.7,0,1.7,0.1,2.8
		c-0.5-0.1-0.9-0.2-1.3-0.2c-0.5,0-0.9,0.1-1.2,0.2c-0.4,0.1-0.7,0.3-0.9,0.6c-0.3,0.3-0.5,0.6-0.7,1c-0.1,0.3-0.3,0.8-0.3,1.3
		c-0.1,0.4-0.1,1.1-0.2,2.1c0,1-0.1,2-0.1,2.9c0,0.4,0,0.8,0,1.4c-0.6,0-1.1,0-1.6,0C249.4,255.1,248.9,255.1,248.2,255.1z"/>
	<path fill="#FFFFFF" d="M257.3,260.5c0.2-2.2,0.4-5,0.5-8.6s0.2-6.3,0.2-8.5c1.5-0.3,2.7-0.4,3.5-0.5s1.6-0.1,2.4-0.1
		c1.1,0,2,0.1,2.9,0.4s1.6,0.7,2.1,1.3s0.9,1.3,1.2,2.1c0.3,0.8,0.4,1.6,0.4,2.4c0,0.9-0.1,1.7-0.4,2.5c-0.2,0.8-0.6,1.5-1.1,2.1
		s-1.1,1.1-1.8,1.4c-0.7,0.3-1.4,0.4-2.2,0.4c-0.5,0-0.9-0.1-1.4-0.2c-0.5-0.1-0.9-0.3-1.2-0.4c-0.3-0.2-0.6-0.4-0.8-0.5
		c-0.2-0.1-0.5-0.5-0.8-0.8l-0.2,5.1v0.8c0,0.1,0,0.5,0,1.2c-0.7,0-1.3,0-1.7,0L257.3,260.5z M261.3,245.6c-0.1,0.4-0.1,0.8-0.1,1.1
		l-0.1,1.3c0,0.6,0,1,0,1.3c0,0.5,0,0.9,0.1,1.4c0.1,0.4,0.3,0.8,0.6,1.2c0.3,0.4,0.6,0.7,1.1,0.8c0.4,0.2,0.8,0.3,1.3,0.3
		c0.6,0,1.1-0.2,1.6-0.5s0.9-0.8,1.1-1.5c0.3-0.7,0.4-1.4,0.4-2.1c0-0.8-0.1-1.5-0.4-2.1s-0.7-1-1.2-1.2s-1.1-0.4-1.7-0.4
		C263.2,245.1,262.3,245.3,261.3,245.6z"/>
	<path fill="#FFFFFF" d="M279.1,242.8c0.9,0,1.8,0.1,2.6,0.4c0.8,0.3,1.5,0.7,2.1,1.2s1,1.2,1.3,2s0.4,1.6,0.4,2.4
		c0,0.9-0.2,1.8-0.5,2.6s-0.8,1.6-1.3,2.2c-0.5,0.6-1.3,1.1-2.2,1.4s-1.8,0.5-2.8,0.5c-0.9,0-1.8-0.1-2.6-0.4
		c-0.8-0.3-1.5-0.7-2.1-1.2s-1-1.2-1.3-2s-0.5-1.6-0.5-2.4c0-0.9,0.1-1.7,0.4-2.5s0.7-1.5,1.3-2.1c0.6-0.6,1.3-1.1,2.3-1.4
		C277.2,242.9,278.1,242.8,279.1,242.8z M279.1,245.2c-0.7,0-1.3,0.2-1.8,0.5s-0.9,0.8-1.2,1.5c-0.3,0.7-0.4,1.4-0.4,2.2
		c0,0.7,0.1,1.3,0.3,1.8c0.2,0.5,0.6,1,1.1,1.3s1.1,0.5,1.8,0.5c0.7,0,1.3-0.2,1.8-0.5s0.9-0.8,1.2-1.5c0.3-0.7,0.4-1.4,0.4-2.2
		c0-0.7-0.1-1.3-0.3-1.8c-0.2-0.5-0.5-1-1-1.3C280.4,245.4,279.8,245.2,279.1,245.2z"/>
	<path fill="#FFFFFF" d="M287.6,255.1l0.3-5.6l0.1-3.3c0-0.7,0-1.3,0-2c0-0.1,0-0.5,0-1.1c0.7,0,1.3,0,1.6,0c0.4,0,0.9,0,1.6,0
		l-0.1,1.7c0.3-0.4,0.6-0.7,0.8-1c0.2-0.3,0.5-0.4,0.7-0.5s0.6-0.3,0.9-0.3s0.7-0.1,1-0.1s0.6,0,1,0.1c0,0.7,0,1.7,0.1,2.8
		c-0.5-0.1-0.9-0.2-1.3-0.2c-0.5,0-0.9,0.1-1.2,0.2c-0.4,0.1-0.7,0.3-0.9,0.6c-0.3,0.3-0.5,0.6-0.7,1c-0.1,0.3-0.3,0.8-0.3,1.3
		c-0.1,0.4-0.1,1.1-0.2,2.1c0,1-0.1,2-0.1,2.9c0,0.4,0,0.8,0,1.4c-0.6,0-1.1,0-1.6,0C288.9,255.1,288.3,255.1,287.6,255.1z"/>
	<path fill="#FFFFFF" d="M297.9,245.7c0.1-0.6,0.2-1,0.2-1.2s0.1-0.6,0.1-1c1.1-0.3,2-0.4,2.8-0.5s1.6-0.2,2.4-0.2
		c0.9,0,1.7,0.1,2.4,0.3c0.7,0.2,1.3,0.5,1.7,1c0.4,0.4,0.6,1.1,0.6,1.9c0,0.5-0.1,1.6-0.2,3.4c-0.1,1.8-0.2,3.7-0.2,5.7
		c-0.6,0-1.2,0-1.7,0s-1,0-1.7,0c0.1-1,0.2-2.1,0.3-3.3l0.2-2.9c-0.3,0.2-0.5,0.3-0.7,0.4c-0.2,0.1-0.3,0.2-0.5,0.2
		c-0.2,0.1-0.5,0.2-1,0.3s-0.9,0.3-1.2,0.4c-0.3,0.1-0.6,0.2-0.8,0.3c-0.2,0.1-0.4,0.3-0.6,0.4c-0.2,0.2-0.3,0.3-0.4,0.5
		s-0.1,0.4-0.1,0.6c0,0.3,0.1,0.6,0.3,0.9c0.2,0.2,0.4,0.4,0.7,0.5c0.3,0.1,0.6,0.1,1,0.1c0.3,0,0.5,0,0.8-0.1s0.7-0.1,1.1-0.3
		c-0.2,0.4-0.4,1.1-0.6,2c-0.6,0.1-1,0.2-1.3,0.2s-0.6,0-0.9,0c-1,0-1.8-0.1-2.4-0.4c-0.6-0.3-1.1-0.7-1.4-1.3s-0.5-1.2-0.5-1.8
		c0-0.3,0.1-0.7,0.2-1s0.3-0.6,0.5-0.9c0.2-0.3,0.5-0.5,0.9-0.8s0.9-0.5,1.6-0.7s1.6-0.5,2.7-0.7c0.3-0.1,0.6-0.1,0.9-0.2
		c0.3-0.1,0.6-0.2,0.8-0.3c0.2-0.1,0.4-0.2,0.5-0.3s0.2-0.3,0.3-0.4c0.1-0.1,0.1-0.3,0.1-0.5c0-0.3-0.1-0.6-0.3-0.8
		c-0.2-0.2-0.5-0.4-0.8-0.4c-0.3-0.1-0.7-0.1-1.1-0.1C301.2,244.7,299.7,245,297.9,245.7z"/>
	<path fill="#FFFFFF" d="M318.1,252.6c-0.1,0.4-0.2,1.2-0.4,2.4c-0.7,0.1-1.2,0.2-1.6,0.3c-0.4,0-0.7,0.1-1.1,0.1
		c-0.6,0-1.1-0.1-1.6-0.2c-0.5-0.1-0.8-0.3-1.1-0.6c-0.3-0.3-0.5-0.6-0.6-1s-0.2-0.8-0.2-1.2c0-0.1,0-0.2,0-0.4s0-0.7,0.1-1.7
		l0.3-4.9h-1.7c0-0.5,0.1-1.2,0.1-2.3h1.8c0-0.5,0.1-1.2,0.1-2.3l1.4-0.3c0.3-0.1,0.9-0.2,1.7-0.4c-0.1,1.1-0.1,2.1-0.1,3h3
		c-0.1,1.1-0.1,1.8-0.1,2.3h-3c-0.2,3.2-0.2,5.1-0.2,5.6s0.1,0.9,0.2,1.1c0.1,0.3,0.3,0.5,0.5,0.6s0.5,0.2,0.8,0.2
		c0.2,0,0.4,0,0.6,0C317.2,252.8,317.6,252.7,318.1,252.6z"/>
	<path fill="#FFFFFF" d="M319.7,255.1c0.1-1.2,0.2-2.2,0.3-3c0.1-1.3,0.2-2.7,0.2-4.4c0.1-1.6,0.1-3.2,0.1-4.7c0.8,0,1.3,0,1.7,0
		c0.4,0,0.9,0,1.7,0c-0.1,1.4-0.2,2.7-0.3,3.9c-0.1,1.2-0.1,2.7-0.1,4.3s0,2.9,0,3.8c-0.7,0-1.3,0-1.7,0
		C321.2,255.1,320.6,255.1,319.7,255.1z M320.4,241c0-0.8,0-1.4,0-1.9v-0.4c0.7,0,1.3,0,1.8,0c0.6,0,1.2,0,1.7,0c0,0.2,0,0.4,0,0.7
		l-0.1,1.6c-0.6,0-1.2,0-1.7,0C321.6,241,321.1,241,320.4,241z"/>
	<path fill="#FFFFFF" d="M329.4,255.1c-0.5-1.7-1.9-5.7-4.2-12c0.7,0,1.3,0,1.8,0s1.1,0,1.6,0l2.8,9l0.4-1l2.7-6.8
		c0.1-0.3,0.3-0.7,0.5-1.2c0.6,0,1.2,0,1.7,0s1.1,0,1.7,0l-1.9,4.2l-2.8,6.3l-0.6,1.5c-0.7,0-1.3,0-1.8,0
		C330.8,255.1,330.2,255.1,329.4,255.1z"/>
	<path fill="#FFFFFF" d="M340.2,245.7c0.1-0.6,0.2-1,0.2-1.2s0.1-0.6,0.1-1c1.1-0.3,2-0.4,2.8-0.5s1.6-0.2,2.4-0.2
		c0.9,0,1.7,0.1,2.4,0.3c0.7,0.2,1.3,0.5,1.7,1c0.4,0.4,0.6,1.1,0.6,1.9c0,0.5-0.1,1.6-0.2,3.4s-0.2,3.7-0.2,5.7c-0.6,0-1.2,0-1.7,0
		s-1,0-1.7,0c0.1-1,0.2-2.1,0.3-3.3l0.2-2.9c-0.3,0.2-0.5,0.3-0.7,0.4c-0.2,0.1-0.3,0.2-0.5,0.2c-0.2,0.1-0.5,0.2-1,0.3
		s-0.9,0.3-1.2,0.4c-0.3,0.1-0.6,0.2-0.8,0.3s-0.4,0.3-0.6,0.4c-0.2,0.2-0.3,0.3-0.4,0.5s-0.1,0.4-0.1,0.6c0,0.3,0.1,0.6,0.3,0.9
		c0.2,0.2,0.4,0.4,0.7,0.5c0.3,0.1,0.6,0.1,1,0.1c0.3,0,0.5,0,0.8-0.1s0.7-0.1,1.1-0.3c-0.2,0.4-0.4,1.1-0.6,2
		c-0.6,0.1-1,0.2-1.3,0.2s-0.6,0-0.9,0c-1,0-1.8-0.1-2.4-0.4s-1.1-0.7-1.4-1.3s-0.5-1.2-0.5-1.8c0-0.3,0.1-0.7,0.2-1
		s0.3-0.6,0.5-0.9s0.5-0.5,0.9-0.8s0.9-0.5,1.6-0.7s1.6-0.5,2.7-0.7c0.3-0.1,0.6-0.1,0.9-0.2c0.3-0.1,0.6-0.2,0.8-0.3
		s0.4-0.2,0.5-0.3s0.2-0.3,0.3-0.4c0.1-0.1,0.1-0.3,0.1-0.5c0-0.3-0.1-0.6-0.3-0.8c-0.2-0.2-0.5-0.4-0.8-0.4
		c-0.3-0.1-0.7-0.1-1.1-0.1C343.5,244.7,341.9,245,340.2,245.7z"/>
</g>
</svg>
